<svg width="50" height="50" viewBox="0 0 50 50" fill="none" xmlns="http://www.w3.org/2000/svg">
<path d="M7.73728 18.5628C8.27777 18.9442 9.90702 20.077 12.6251 21.9606C15.3433 23.8441 17.4256 25.2944 18.8721 26.3115C19.0311 26.423 19.3687 26.6653 19.8852 27.0389C20.4018 27.4127 20.8311 27.7148 21.1727 27.9452C21.5145 28.1755 21.9277 28.4339 22.4127 28.7199C22.8976 29.0057 23.3547 29.2207 23.7839 29.363C24.2131 29.5065 24.6105 29.5775 24.976 29.5775H25.024C25.3896 29.5775 25.7871 29.5064 26.2163 29.363C26.6453 29.2207 27.1028 29.0055 27.5873 28.7199C28.072 28.4336 28.4852 28.1754 28.827 27.9452C29.1689 27.7148 29.5978 27.4127 30.1146 27.0389C30.631 26.665 30.9691 26.423 31.128 26.3115C32.5901 25.2944 36.31 22.7113 42.2866 18.5623C43.4469 17.752 44.4163 16.7742 45.1951 15.6297C45.9744 14.4857 46.3637 13.2855 46.3637 12.0299C46.3637 10.9806 45.9859 10.0824 45.2308 9.33542C44.4758 8.58823 43.5815 8.21484 42.5486 8.21484H7.45108C6.2272 8.21484 5.28534 8.62807 4.62567 9.45451C3.96608 10.2811 3.63629 11.3143 3.63629 12.5541C3.63629 13.5555 4.07357 14.6407 4.94769 15.8089C5.82174 16.9773 6.75191 17.8953 7.73728 18.5628Z" fill="#A0BBFF"/>
<path d="M43.979 21.1138C38.7658 24.6423 34.8073 27.3846 32.1054 29.3399C31.1994 30.0073 30.4644 30.5282 29.8999 30.9015C29.3355 31.2751 28.5848 31.6566 27.6468 32.0458C26.7091 32.4357 25.8352 32.63 25.0244 32.63H24.9761C24.1654 32.63 23.2911 32.4357 22.3534 32.0458C21.4157 31.6566 20.6645 31.2751 20.1002 30.9015C19.5361 30.5282 18.8008 30.0073 17.8949 29.3399C15.7488 27.7664 11.7988 25.024 6.04472 21.1138C5.13844 20.5102 4.33571 19.8183 3.63629 19.0395V37.9707C3.63629 39.0204 4.00968 39.9181 4.75687 40.6652C5.50389 41.4125 6.40215 41.7861 7.45133 41.7861H42.549C43.5979 41.7861 44.4961 41.4125 45.2432 40.6652C45.9905 39.9178 46.3637 39.0205 46.3637 37.9707V19.0395C45.6801 19.8022 44.8856 20.4941 43.979 21.1138Z" fill="#A0BBFF"/>
</svg>
