<svg width="50" height="50" viewBox="0 0 50 50" fill="none" xmlns="http://www.w3.org/2000/svg">
<path d="M25.0554 17.9282C21.0067 17.9282 17.7133 21.1382 17.7133 25.0847C17.7133 29.0302 21.0067 32.2407 25.0554 32.2407C29.1041 32.2407 32.3975 29.0308 32.3975 25.0847C32.3975 21.1387 29.1041 17.9282 25.0554 17.9282Z" fill="#A0BBFF"/>
<path d="M43.3666 21.054H41.3107C40.9536 19.5319 40.3276 17.9941 39.4685 16.5304L40.9369 15.0646C41.8382 14.1649 41.857 12.6792 41.0323 11.7201C40.6461 11.2708 38.9738 9.56306 38.5443 9.15178C37.667 8.31149 36.1006 8.15458 35.1863 9.06316L33.7267 10.5196C32.3526 9.6866 30.8352 9.04596 29.2641 8.63415V6.55741C29.2641 5.25162 28.2377 4.18927 26.9382 4.14861C26.3403 4.12984 23.9393 4.11577 23.3445 4.14861C22.0757 4.21898 21.0186 5.27508 21.0186 6.55741V8.69149C19.4923 9.04804 17.9493 9.67357 16.482 10.5316L15.0109 9.06368C14.1107 8.16553 12.6251 8.14729 11.6654 8.96881C11.215 9.35403 9.50317 11.0231 9.09136 11.4522C8.24951 12.3279 8.09104 13.8969 9.00327 14.8091L10.4602 16.263C9.62671 17.6329 8.9845 19.1461 8.57218 20.7126H6.48813C5.19172 20.7126 4.19766 21.8927 4.16221 23.1214C4.14501 23.7177 4.12937 26.1135 4.16221 26.7072C4.23258 27.977 5.29181 29.0305 6.57362 29.0305H8.62951C8.98659 30.5521 9.61263 32.0904 10.4717 33.5546L9.00275 35.0204C8.10147 35.9202 8.08322 37.4058 8.90787 38.3649C9.29414 38.8143 10.9669 40.5225 11.3964 40.9337C12.2758 41.7751 13.8381 41.9273 14.7545 41.0218L16.214 39.5654C17.5876 40.3979 19.105 41.039 20.6766 41.4509V43.5276C20.6766 44.8245 21.8605 45.8155 23.088 45.8509C23.6859 45.8681 26.0869 45.8838 26.6817 45.8509C27.9505 45.7805 29.0076 44.7244 29.0076 43.4421V41.3935C30.5339 41.037 32.0769 40.4109 33.5443 39.5534L35.0153 41.0213C35.916 41.92 37.4006 41.9377 38.3608 41.1157C38.8112 40.7305 40.5225 39.0613 40.9349 38.6329C41.7772 37.7571 41.9357 36.1881 41.0229 35.2753L39.566 33.822C40.3995 32.4511 41.0417 30.9384 41.454 29.3719H43.5381C44.5405 29.3719 45.4866 28.5832 45.766 27.6455C45.9114 27.1565 45.8327 23.0604 45.8562 23.248C45.6941 21.9563 44.6703 21.054 43.3666 21.054ZM25.0553 34.3261C19.8572 34.3261 15.6281 30.1809 15.6281 25.085C15.6281 19.989 19.8572 15.8434 25.0553 15.8434C30.2535 15.8434 34.4825 19.989 34.4825 25.085C34.4825 30.1809 30.254 34.3261 25.0553 34.3261Z" fill="#A0BBFF"/>
</svg>
