<svg width="50" height="50" viewBox="0 0 50 50" fill="none" xmlns="http://www.w3.org/2000/svg">
<path fill-rule="evenodd" clip-rule="evenodd" d="M34.748 36.6333L35.6667 37.552L34.724 38.4947C34.2027 39.016 34.2027 39.86 34.724 40.3813C34.724 40.3813 36.6373 42.2933 38.172 43.828C38.9213 44.5787 39.9387 45 41 45C42.0613 45 43.0787 44.5787 43.828 43.828C44.5787 43.0787 45 42.0613 45 41C45 39.9387 44.5787 38.9213 43.828 38.172C42.2933 36.6373 40.3813 34.724 40.3813 34.724C39.86 34.2027 39.016 34.2027 38.4947 34.724L37.552 35.6667L36.6333 34.748C39.3547 31.5933 41 27.488 41 23C41 13.0653 32.9347 5 23 5C13.0653 5 5 13.0653 5 23C5 32.9347 13.0653 41 23 41C27.488 41 31.5933 39.3547 34.748 36.6333ZM31.6667 19.6667C31.6667 18.9307 31.0693 18.3333 30.3333 18.3333H29C28.264 18.3333 27.6667 18.9307 27.6667 19.6667V29C27.6667 29.736 28.264 30.3333 29 30.3333H30.3333C31.0693 30.3333 31.6667 29.736 31.6667 29V19.6667ZM18.3333 19.6667C18.3333 18.9307 17.736 18.3333 17 18.3333H15.6667C14.9307 18.3333 14.3333 18.9307 14.3333 19.6667V29C14.3333 29.736 14.9307 30.3333 15.6667 30.3333H17C17.736 30.3333 18.3333 29.736 18.3333 29V19.6667ZM25 15.6667C25 14.9307 24.4027 14.3333 23.6667 14.3333H22.3333C21.5973 14.3333 21 14.9307 21 15.6667V29C21 29.736 21.5973 30.3333 22.3333 30.3333H23.6667C24.4027 30.3333 25 29.736 25 29V15.6667Z" fill="#A0BBFF"/>
</svg>
