<svg width="50" height="50" viewBox="0 0 50 50" fill="none" xmlns="http://www.w3.org/2000/svg">
<path fill-rule="evenodd" clip-rule="evenodd" d="M23.6667 11.6667V25C23.6667 25.736 24.264 26.3333 25 26.3333H38.3333C39.0693 26.3333 39.6667 26.9307 39.6667 27.6667C39.6667 37.24 31.9067 45 22.3333 45C12.7667 45 5 37.2333 5 27.6667C5 18.0933 12.76 10.3333 22.3333 10.3333C23.0693 10.3333 23.6667 10.9307 23.6667 11.6667ZM43.6667 23.6667H30.3333C28.124 23.6667 26.3333 21.876 26.3333 19.6667V6.33333C26.3333 5.59733 26.9307 5 27.6667 5C37.2333 5 45 12.7667 45 22.3333C45 23.0693 44.4027 23.6667 43.6667 23.6667Z" fill="#A0BBFF"/>
</svg>
