<svg width="50" height="50" viewBox="0 0 50 50" fill="none" xmlns="http://www.w3.org/2000/svg">
<path fill-rule="evenodd" clip-rule="evenodd" d="M11.2857 7C8.44536 7 6.14282 9.30254 6.14282 12.1429V37.8571C6.14282 40.6975 8.44536 43 11.2857 43H38.7142C41.5546 43 43.8571 40.6975 43.8571 37.8571V17.2857C43.8571 14.4454 41.5546 12.1429 38.7142 12.1429H25L21.3634 8.50631C20.3989 7.54183 19.0908 7 17.7269 7H11.2857ZM25 20.7143C25.9468 20.7143 26.7142 21.4818 26.7142 22.4286V30.2899L28.9306 28.0735C29.6001 27.4041 30.6856 27.4041 31.355 28.0735C32.0244 28.743 32.0244 29.8285 31.355 30.4979L26.2121 35.6407C25.5427 36.3102 24.4572 36.3102 23.7878 35.6407L18.6449 30.4979C17.9755 29.8285 17.9755 28.743 18.6449 28.0735C19.3144 27.4041 20.3998 27.4041 21.0693 28.0735L23.2857 30.2899V22.4286C23.2857 21.4818 24.0532 20.7143 25 20.7143Z" fill="#A0BBFF"/>
</svg>
