<svg width="50" height="50" viewBox="0 0 50 50" fill="none" xmlns="http://www.w3.org/2000/svg">
<path fill-rule="evenodd" clip-rule="evenodd" d="M34.7945 20.6217C36.8004 20.6217 38.4264 22.2478 38.4309 24.259C38.4264 26.2649 36.8004 27.8953 34.7945 27.8953C32.7833 27.8953 31.1528 26.2649 31.1528 24.259C31.1528 22.2487 32.7842 20.6217 34.7945 20.6217ZM25.0009 20.6217C27.0112 20.6217 28.6372 22.2478 28.6372 24.259C28.6372 26.2649 27.0112 27.8953 25.0009 27.8953C22.9888 27.8953 21.3627 26.2649 21.3627 24.259C21.3627 22.2487 22.9888 20.6217 25.0009 20.6217ZM15.2108 20.6217C17.2167 20.6217 18.8472 22.2478 18.8472 24.259C18.8472 26.2649 17.2167 27.8953 15.2108 27.8953C13.2005 27.8953 11.5736 26.2649 11.5736 24.259C11.5736 22.2487 13.2005 20.6217 15.2108 20.6217ZM25.0009 5C14.3355 5 5.741 13.3117 5.741 24.259C5.741 29.5169 7.72907 34.1638 10.9678 37.5733L9.81856 42.7254C9.43962 44.4208 10.6156 45.5612 12.1393 44.7126L17.1704 41.9062C19.5615 42.9442 22.206 43.518 25.0009 43.518C35.6698 43.518 44.259 35.2116 44.259 24.259C44.259 13.3117 35.6698 5 25.0009 5Z" fill="#A0BBFF"/>
</svg>
