<svg width="86" height="36" viewBox="0 0 86 36" fill="none" xmlns="http://www.w3.org/2000/svg">
<g clip-path="url(#clip0_2013_1113)">
<path opacity="0.7" fill-rule="evenodd" clip-rule="evenodd" d="M3.01153 17.5951H12.8422L22.6729 2.7002H12.8422L3.01153 17.5951ZM22.6722 32.4904H12.8414L3.01074 17.5954H12.8414L22.6722 32.4904Z" fill="#BEC0C2"/>
<path d="M10.4597 17.5951H20.2903L10.4597 2.7002H0.628998L10.4597 17.5951Z" fill="#BEC0C2"/>
<path d="M10.4592 32.4903H0.62854L10.4592 17.5952H20.2897L10.4592 32.4903Z" fill="#BEC0C2"/>
<path d="M27.5388 17.4557C27.5388 16.1108 27.8393 14.9096 28.4398 13.8521C29.0533 12.7814 29.8824 11.9523 30.9271 11.3648C31.9847 10.7642 33.166 10.4639 34.4717 10.4639C35.9994 10.4639 37.3377 10.8556 38.4867 11.639C39.6356 12.4224 40.4385 13.506 40.8956 14.89H37.7424C37.429 14.2372 36.9852 13.7476 36.4109 13.4212C35.8492 13.0948 35.1965 12.9316 34.4523 12.9316C33.6559 12.9316 32.9443 13.1209 32.3175 13.4995C31.7037 13.8651 31.2207 14.3874 30.8681 15.0663C30.5289 15.7452 30.3589 16.5417 30.3589 17.4557C30.3589 18.3566 30.5289 19.153 30.8681 19.8452C31.2207 20.524 31.7037 21.0527 32.3175 21.4315C32.9443 21.797 33.6559 21.9799 34.4523 21.9799C35.1965 21.9799 35.8492 21.8164 36.4109 21.4901C36.9852 21.1508 37.429 20.6545 37.7424 20.0015H40.8956C40.4385 21.3988 39.6356 22.4888 38.4867 23.2722C37.3507 24.0427 36.0124 24.4277 34.4717 24.4277C33.166 24.4277 31.9847 24.134 30.9271 23.5464C29.8824 22.9459 29.0533 22.1168 28.4398 21.0592C27.8393 20.0015 27.5388 18.8005 27.5388 17.4557Z" fill="#BEC0C2"/>
<path d="M47.2719 24.4867C46.2275 24.4867 45.2874 24.2581 44.4518 23.8013C43.6163 23.3313 42.9568 22.6718 42.4738 21.8233C42.0037 20.9744 41.7687 19.9951 41.7687 18.8854C41.7687 17.7756 42.0102 16.7964 42.4932 15.9477C42.9895 15.099 43.6619 14.4462 44.5104 13.9892C45.3593 13.5192 46.3059 13.2842 47.3503 13.2842C48.395 13.2842 49.3416 13.5192 50.1901 13.9892C51.0389 14.4462 51.7049 15.099 52.1879 15.9477C52.6839 16.7964 52.9322 17.7756 52.9322 18.8854C52.9322 19.9951 52.6774 20.9744 52.1681 21.8233C51.6722 22.6718 50.9933 23.3313 50.1315 23.8013C49.2827 24.2581 48.3296 24.4867 47.2719 24.4867ZM47.2719 22.0975C47.7682 22.0975 48.2318 21.98 48.6627 21.7449C49.1065 21.4966 49.4591 21.1311 49.72 20.6481C49.9813 20.1651 50.1118 19.5775 50.1118 18.8854C50.1118 17.8539 49.8375 17.0641 49.2891 16.5157C48.754 15.9542 48.0945 15.6735 47.3111 15.6735C46.528 15.6735 45.8685 15.9542 45.333 16.5157C44.8109 17.0641 44.5496 17.8539 44.5496 18.8854C44.5496 19.9168 44.8044 20.7132 45.3136 21.2749C45.8358 21.8233 46.4888 22.0975 47.2719 22.0975Z" fill="#BEC0C2"/>
<path d="M56.9019 22.1364H59.8943V24.3103H54.1598V9.81738H56.9019V22.1364Z" fill="#BEC0C2"/>
<path d="M60.6253 18.8462C60.6253 17.7495 60.8409 16.7768 61.2715 15.9281C61.7157 15.0794 62.3097 14.4266 63.054 13.9696C63.8112 13.5127 64.6533 13.2842 65.5805 13.2842C66.3898 13.2842 67.0949 13.4474 67.6954 13.7738C68.3093 14.1002 68.7987 14.5115 69.1642 15.0076V13.4605H71.9257V24.3103H69.1642V22.724C68.8117 23.2332 68.3222 23.6577 67.6954 23.9969C67.082 24.3236 66.3704 24.4867 65.5607 24.4867C64.6468 24.4867 63.8112 24.2517 63.054 23.7816C62.3097 23.3116 61.7157 22.6521 61.2715 21.8036C60.8409 20.9418 60.6253 19.956 60.6253 18.8462ZM69.1642 18.8854C69.1642 18.2195 69.0338 17.6516 68.7725 17.1815C68.5116 16.6985 68.159 16.3329 67.7152 16.0848C67.271 15.8237 66.7945 15.6931 66.2852 15.6931C65.776 15.6931 65.3063 15.8171 64.8754 16.0652C64.4445 16.3133 64.0919 16.6789 63.8177 17.162C63.5564 17.632 63.426 18.1934 63.426 18.8462C63.426 19.4991 63.5564 20.0735 63.8177 20.5698C64.0919 21.0528 64.4445 21.4248 64.8754 21.6861C65.3192 21.9473 65.7893 22.0778 66.2852 22.0778C66.7945 22.0778 67.271 21.9538 67.7152 21.7055C68.159 21.4446 68.5116 21.0791 68.7725 20.609C69.0338 20.1257 69.1642 19.5513 69.1642 18.8854Z" fill="#BEC0C2"/>
<path d="M76.5619 15.0465C76.9145 14.5243 77.3975 14.0999 78.0113 13.7735C78.6381 13.4471 79.3497 13.2839 80.1461 13.2839C81.0729 13.2839 81.9088 13.5124 82.6528 13.9693C83.4103 14.4263 84.0044 15.0791 84.4353 15.9278C84.8791 16.7635 85.1009 17.7362 85.1009 18.8459C85.1009 19.9557 84.8791 20.9415 84.4353 21.8033C84.0044 22.6518 83.4103 23.3113 82.6528 23.7813C81.9088 24.2514 81.0729 24.4865 80.1461 24.4865C79.3364 24.4865 78.6248 24.3298 78.0113 24.0164C77.4108 23.6901 76.9278 23.2721 76.5619 22.7629V24.31H73.8202V9.81738H76.5619V15.0465ZM82.3002 18.8459C82.3002 18.1931 82.1633 17.6317 81.8891 17.1617C81.6278 16.6786 81.2756 16.313 80.8314 16.0649C80.4005 15.8168 79.9308 15.6928 79.4215 15.6928C78.9252 15.6928 78.4552 15.8234 78.0113 16.0845C77.5804 16.3326 77.2279 16.6982 76.9537 17.1812C76.6927 17.6643 76.5619 18.2323 76.5619 18.8851C76.5619 19.538 76.6927 20.1059 76.9537 20.589C77.2279 21.072 77.5804 21.4443 78.0113 21.7052C78.4552 21.9535 78.9252 22.0775 79.4215 22.0775C79.9308 22.0775 80.4005 21.947 80.8314 21.6858C81.2756 21.4245 81.6278 21.0525 81.8891 20.5695C82.1633 20.0862 82.3002 19.5118 82.3002 18.8459Z" fill="#BEC0C2"/>
</g>
<defs>
<clipPath id="clip0_2013_1113">
<rect width="85.2308" height="36" fill="white" transform="translate(-0.00415039)"/>
</clipPath>
</defs>
</svg>
