<svg width="111" height="36" viewBox="0 0 111 36" fill="none" xmlns="http://www.w3.org/2000/svg">
<g clip-path="url(#clip0_2013_1135)">
<path d="M42.2088 26.0943H32.6541V9.06836H41.7008C43.0052 9.06836 44.0808 9.22084 44.928 9.5258C45.792 9.8138 46.4356 10.2712 46.8592 10.898C47.2828 11.5079 47.4944 12.2957 47.4944 13.2613C47.4944 14.3286 47.2064 15.1757 46.6304 15.8025C46.0544 16.4293 45.182 16.7936 44.0132 16.8952V17.2256C45.4532 17.2764 46.5204 17.6914 47.2152 18.4707C47.9264 19.25 48.2824 20.2157 48.2824 21.3677C48.2824 22.3503 48.062 23.1973 47.6216 23.9088C47.198 24.6204 46.5372 25.1625 45.6396 25.5352C44.7416 25.9079 43.598 26.0943 42.2088 26.0943ZM37.4315 19.2585V21.7997H42.0312C42.4884 21.7997 42.8356 21.7319 43.0728 21.5964C43.31 21.4608 43.4288 21.1136 43.4288 20.5545C43.4288 19.9785 43.3184 19.6227 43.0984 19.4872C42.878 19.3347 42.5224 19.2585 42.0312 19.2585H37.4315ZM37.4315 13.363V15.5484H41.4464C41.938 15.5484 42.268 15.4722 42.4376 15.3197C42.624 15.1672 42.7172 14.8792 42.7172 14.4557C42.7172 13.9982 42.6072 13.7018 42.3868 13.5662C42.1836 13.4307 41.836 13.363 41.3448 13.363H37.4315ZM55.4824 26.3484C54.0764 26.3484 52.8736 26.0858 51.874 25.5606C50.8916 25.0185 50.1376 24.2562 49.6124 23.2736C49.1044 22.274 48.85 21.0797 48.85 19.6905C48.85 18.2505 49.1128 17.0138 49.638 15.9804C50.1632 14.947 50.934 14.1592 51.9504 13.6171C52.9668 13.058 54.1952 12.7785 55.6352 12.7785C57.0412 12.7785 58.21 13.0326 59.142 13.5408C60.0904 14.0491 60.7936 14.7522 61.2512 15.65C61.7252 16.531 61.9624 17.5559 61.9624 18.7248C61.9624 19.0806 61.9372 19.4364 61.8864 19.7922C61.8356 20.1479 61.7932 20.4359 61.7592 20.6562H50.8832V18.0642H57.6172L57.414 18.1912C57.4308 17.8862 57.38 17.6152 57.2612 17.378C57.1596 17.1239 56.9564 16.9206 56.6516 16.7682C56.3636 16.6157 55.94 16.5394 55.3808 16.5394C54.6016 16.5394 54.0596 16.6834 53.7544 16.9714C53.4496 17.2425 53.2972 17.683 53.2972 18.2928V20.0971C53.2972 20.7239 53.348 21.2067 53.4496 21.5456C53.5512 21.8674 53.7632 22.0877 54.0848 22.2063C54.4068 22.3248 54.898 22.3842 55.5588 22.3842C56.1348 22.3842 56.5328 22.3248 56.7532 22.2063C56.9732 22.0707 57.0836 21.859 57.0836 21.571V21.5202H61.81V21.8251C61.81 22.706 61.5476 23.4853 61.0224 24.163C60.514 24.8406 59.7856 25.3743 58.8368 25.7639C57.9052 26.1536 56.7872 26.3484 55.4824 26.3484ZM67.778 26.0943H63.026V13.0326H67.4732V16.7427L67.778 16.8698V26.0943ZM67.778 17.8354H66.8124V15.0147H67.702C68.0744 14.371 68.566 13.8373 69.1756 13.4138C69.8024 12.9902 70.548 12.7785 71.412 12.7785C72.2592 12.7785 72.928 12.9479 73.4196 13.2867C73.9108 13.6256 74.2664 14.1084 74.4868 14.7352C74.7072 15.362 74.8172 16.1074 74.8172 16.9714V19.3347H70.0396V18.0387C70.0396 17.5474 69.972 17.2171 69.8364 17.0477C69.7008 16.8782 69.4128 16.7936 68.9724 16.7936C68.5828 16.7936 68.2864 16.8528 68.0832 16.9714C67.8796 17.0731 67.778 17.3611 67.778 17.8354ZM80.4096 26.0943H75.6576V9.06836H80.4096V26.0943ZM86.688 11.8637H81.936V9.06836H86.688V11.8637ZM86.7136 26.0943H81.936V13.0326H86.7136V26.0943ZM101.835 26.0943H97.0572V18.7248C97.0572 18.0302 96.93 17.5474 96.676 17.2764C96.4388 17.0053 95.8968 16.8698 95.0496 16.8698C94.5244 16.8698 94.1096 16.9206 93.8044 17.0222C93.5164 17.1239 93.3048 17.3018 93.1692 17.5559C93.0508 17.81 92.9912 18.1742 92.9912 18.6486H92.2288V15.0147H92.9152C93.1524 14.5234 93.4828 14.1168 93.906 13.795C94.3296 13.4562 94.8208 13.202 95.38 13.0326C95.9392 12.8632 96.5404 12.7785 97.1844 12.7785C98.3192 12.7785 99.2256 13.0072 99.9032 13.4646C100.581 13.9051 101.072 14.5065 101.377 15.2688C101.682 16.0142 101.835 16.8359 101.835 17.7338V26.0943ZM92.9912 26.0943H88.2392V13.0326H92.6864V16.6157L92.9912 16.7427V26.0943ZM108.945 26.0943H103.253V20.834H108.945V26.0943Z" fill="#BEC0C2"/>
<path d="M20.1177 3.17627H5.29418C4.7094 3.17627 4.23535 2.70222 4.23535 2.11745V1.05862C4.23535 0.473849 4.7094 -0.000202894 5.29418 -0.000202894H20.1177C20.7025 -0.000202894 21.1765 0.473849 21.1765 1.05862V2.11745C21.1765 2.70222 20.7025 3.17627 20.1177 3.17627Z" fill="#BEC0C2"/>
<path d="M20.1177 36H5.29418C4.7094 36 4.23535 35.5259 4.23535 34.9412V33.8824C4.23535 33.2976 4.7094 32.8235 5.29418 32.8235H20.1177C20.7025 32.8235 21.1765 33.2976 21.1765 33.8824V34.9412C21.1765 35.5259 20.7025 36 20.1177 36Z" fill="#BEC0C2"/>
<path fill-rule="evenodd" clip-rule="evenodd" d="M21.2406 14.8878C21.6541 15.3013 21.6541 15.9717 21.2406 16.3852L12.925 24.7007C12.5116 25.1142 11.8411 25.1142 11.4276 24.7007L5.22976 18.5028C4.81624 18.0893 4.81624 17.4189 5.22976 17.0054L7.47584 14.7593C7.88936 14.3458 8.55976 14.3458 8.97328 14.7593L12.1763 17.9624L17.497 12.6417C17.9106 12.2282 18.581 12.2282 18.9945 12.6417L21.2406 14.8878Z" fill="#BEC0C2"/>
</g>
<defs>
<clipPath id="clip0_2013_1135">
<rect width="110.4" height="36" fill="white"/>
</clipPath>
</defs>
</svg>
