<svg width="119" height="36" viewBox="0 0 119 36" fill="none" xmlns="http://www.w3.org/2000/svg">
<g clip-path="url(#clip0_2013_1153)">
<path d="M42.7418 28.4002L35.0945 17.4758L42.7418 7.73242H47.1706L39.4643 17.4758L47.1706 28.4002H42.7418ZM31.02 28.4002V7.73242H34.7993V28.4002H31.02ZM52.0146 28.6954C51.2274 28.6954 50.509 28.5232 49.8594 28.1787C49.2098 27.8244 48.693 27.3176 48.3094 26.6582C47.9254 25.9988 47.7334 25.2016 47.7334 24.2666C47.7334 23.4301 47.9254 22.7165 48.3094 22.126C48.703 21.5257 49.2146 21.0287 49.8446 20.635C50.4842 20.2315 51.173 19.9165 51.9114 19.6902C52.6594 19.454 53.3926 19.2817 54.111 19.1735C54.8394 19.0652 55.479 19.0013 56.0302 18.9816C55.9906 18.1352 55.7742 17.5201 55.3806 17.1363C54.987 16.7524 54.3178 16.5605 53.373 16.5605C52.7134 16.5605 52.0686 16.654 51.439 16.841C50.819 17.0181 50.1154 17.2986 49.3278 17.6825L49.003 14.7004C49.889 14.2674 50.7746 13.9426 51.6602 13.7261C52.5558 13.5095 53.4614 13.4013 54.3766 13.4013C55.479 13.4013 56.4286 13.5981 57.2258 13.9918C58.023 14.3855 58.6382 15.0203 59.0714 15.8962C59.5042 16.7623 59.7206 17.9088 59.7206 19.3359V23.3218C59.7206 24.0599 59.7554 24.5963 59.8242 24.9309C59.893 25.2557 60.021 25.4624 60.2078 25.551C60.395 25.6395 60.6658 25.6839 61.0198 25.6839H61.4922L61.1674 28.6954H59.839C59.2878 28.6954 58.7958 28.6216 58.3626 28.474C57.9394 28.3362 57.5754 28.1394 57.2702 27.8835C56.965 27.6276 56.719 27.3274 56.5322 26.983C56.0498 27.5243 55.3954 27.9475 54.5686 28.2525C53.7518 28.5478 52.9006 28.6954 52.0146 28.6954ZM53.5498 25.8905C53.8746 25.8905 54.2782 25.8069 54.7606 25.6395C55.2426 25.4624 55.6758 25.1917 56.0598 24.8276V21.4617C55.3706 21.4912 54.6818 21.6044 53.993 21.8013C53.3038 21.9981 52.7282 22.2884 52.2658 22.6723C51.803 23.0561 51.5718 23.5383 51.5718 24.119C51.5718 24.7193 51.7294 25.1671 52.0442 25.4624C52.359 25.7478 52.861 25.8905 53.5498 25.8905ZM63.531 28.4002V13.6375H66.9558L67.1034 16.3833L66.2474 15.2614C66.8082 14.789 67.4774 14.3609 68.255 13.977C69.0326 13.5932 69.9378 13.4013 70.9714 13.4013C72.861 13.4013 74.2634 14.0311 75.1786 15.2909C76.0942 16.5408 76.5518 18.1647 76.5518 20.1626V28.4002H72.8906V20.4579C72.8906 19.08 72.6594 18.0614 72.1966 17.402C71.7438 16.7426 71.001 16.4129 69.9674 16.4129C69.131 16.4129 68.447 16.6195 67.9154 17.0329C67.3842 17.4364 66.9166 17.9777 66.513 18.6568L67.1922 16.8557V28.4002H63.531ZM84.0146 28.6954C83.0402 28.6954 82.1594 28.6019 81.3718 28.4149C80.5942 28.2279 79.8118 27.9573 79.0246 27.603L79.3494 24.4733C80.1074 24.9162 80.8502 25.2754 81.5786 25.551C82.3166 25.8167 83.0894 25.9496 83.8962 25.9496C84.6246 25.9496 85.1806 25.8315 85.5646 25.5953C85.9482 25.3591 86.1402 24.9851 86.1402 24.4733C86.1402 24.0895 86.037 23.7745 85.8302 23.5285C85.6334 23.2825 85.3334 23.061 84.9298 22.8642C84.5262 22.6673 84.0242 22.4557 83.4238 22.2294C82.5186 21.8947 81.7458 21.5306 81.1062 21.1369C80.4762 20.7433 79.9942 20.2709 79.6594 19.7197C79.3346 19.1587 79.1722 18.4698 79.1722 17.6529C79.1722 16.8065 79.3938 16.0586 79.8366 15.409C80.2794 14.7595 80.9094 14.2526 81.7262 13.8885C82.543 13.5243 83.5126 13.3422 84.6346 13.3422C85.5694 13.3422 86.4058 13.4456 87.1442 13.6523C87.8922 13.8589 88.581 14.1394 89.211 14.4937L88.8862 17.6234C88.2266 17.1609 87.5622 16.7819 86.893 16.4867C86.2238 16.1816 85.4906 16.0291 84.6934 16.0291C84.0638 16.0291 83.5766 16.157 83.2318 16.4129C82.8874 16.6688 82.7154 17.0329 82.7154 17.5053C82.7154 18.0761 82.9566 18.5043 83.4386 18.7897C83.921 19.0751 84.6934 19.4245 85.7566 19.8378C86.4454 20.1035 87.0406 20.3791 87.5426 20.6645C88.0546 20.9499 88.4778 21.2649 88.8122 21.6093C89.147 21.9538 89.393 22.3475 89.5506 22.7903C89.7178 23.2234 89.8014 23.7253 89.8014 24.2961C89.8014 25.2311 89.575 26.0283 89.1222 26.6877C88.6794 27.3373 88.025 27.8343 87.159 28.1787C86.3026 28.5232 85.2546 28.6954 84.0146 28.6954ZM95.4954 28.6954C94.7082 28.6954 93.9898 28.5232 93.3402 28.1787C92.6906 27.8244 92.1738 27.3176 91.7898 26.6582C91.4062 25.9988 91.2142 25.2016 91.2142 24.2666C91.2142 23.4301 91.4062 22.7165 91.7898 22.126C92.1838 21.5257 92.6954 21.0287 93.3254 20.635C93.965 20.2315 94.6538 19.9165 95.3922 19.6902C96.1402 19.454 96.8734 19.2817 97.5918 19.1735C98.3202 19.0652 98.9598 19.0013 99.511 18.9816C99.4714 18.1352 99.255 17.5201 98.8614 17.1363C98.4678 16.7524 97.7982 16.5605 96.8534 16.5605C96.1942 16.5605 95.5494 16.654 94.9198 16.841C94.2998 17.0181 93.5958 17.2986 92.8086 17.6825L92.4838 14.7004C93.3694 14.2674 94.2554 13.9426 95.141 13.7261C96.0366 13.5095 96.9422 13.4013 97.8574 13.4013C98.9598 13.4013 99.9094 13.5981 100.707 13.9918C101.504 14.3855 102.119 15.0203 102.552 15.8962C102.985 16.7623 103.201 17.9088 103.201 19.3359V23.3218C103.201 24.0599 103.236 24.5963 103.305 24.9309C103.374 25.2557 103.502 25.4624 103.689 25.551C103.876 25.6395 104.146 25.6839 104.501 25.6839H104.973L104.648 28.6954H103.32C102.769 28.6954 102.277 28.6216 101.843 28.474C101.42 28.3362 101.056 28.1394 100.751 27.8835C100.446 27.6276 100.2 27.3274 100.013 26.983C99.5306 27.5243 98.8762 27.9475 98.0494 28.2525C97.2326 28.5478 96.381 28.6954 95.4954 28.6954ZM97.0306 25.8905C97.3554 25.8905 97.759 25.8069 98.2414 25.6395C98.7234 25.4624 99.1566 25.1917 99.5402 24.8276V21.4617C98.8514 21.4912 98.1626 21.6044 97.4738 21.8013C96.7846 21.9981 96.209 22.2884 95.7462 22.6723C95.2838 23.0561 95.0526 23.5383 95.0526 24.119C95.0526 24.7193 95.2098 25.1671 95.525 25.4624C95.8398 25.7478 96.3418 25.8905 97.0306 25.8905ZM111.204 28.6954C110.23 28.6954 109.349 28.6019 108.562 28.4149C107.784 28.2279 107.002 27.9573 106.215 27.603L106.539 24.4733C107.297 24.9162 108.04 25.2754 108.769 25.551C109.507 25.8167 110.279 25.9496 111.086 25.9496C111.815 25.9496 112.371 25.8315 112.754 25.5953C113.138 25.3591 113.33 24.9851 113.33 24.4733C113.33 24.0895 113.227 23.7745 113.02 23.5285C112.823 23.2825 112.523 23.061 112.119 22.8642C111.716 22.6673 111.214 22.4557 110.614 22.2294C109.708 21.8947 108.936 21.5306 108.296 21.1369C107.666 20.7433 107.184 20.2709 106.849 19.7197C106.525 19.1587 106.362 18.4698 106.362 17.6529C106.362 16.8065 106.583 16.0586 107.027 15.409C107.469 14.7595 108.099 14.2526 108.916 13.8885C109.733 13.5243 110.702 13.3422 111.824 13.3422C112.759 13.3422 113.596 13.4456 114.334 13.6523C115.082 13.8589 115.771 14.1394 116.401 14.4937L116.076 17.6234C115.417 17.1609 114.752 16.7819 114.083 16.4867C113.414 16.1816 112.681 16.0291 111.883 16.0291C111.253 16.0291 110.766 16.157 110.422 16.4129C110.077 16.6688 109.905 17.0329 109.905 17.5053C109.905 18.0761 110.146 18.5043 110.629 18.7897C111.111 19.0751 111.883 19.4245 112.946 19.8378C113.635 20.1035 114.231 20.3791 114.733 20.6645C115.244 20.9499 115.667 21.2649 116.002 21.6093C116.337 21.9538 116.583 22.3475 116.74 22.7903C116.908 23.2234 116.991 23.7253 116.991 24.2961C116.991 25.2311 116.765 26.0283 116.312 26.6877C115.869 27.3373 115.215 27.8343 114.349 28.1787C113.493 28.5232 112.444 28.6954 111.204 28.6954Z" fill="#BEC0C2"/>
<path d="M17.9166 23.5989V6.20703L24.1903 12.4014V29.7932H6.79849L0.604126 23.5989H17.9166Z" fill="#BEC0C2"/>
<path d="M9.33977 6.20703H0.604126V14.9427H9.33977V6.20703Z" fill="#BEC0C2"/>
</g>
<defs>
<clipPath id="clip0_2013_1153">
<rect width="117.6" height="36" fill="white" transform="translate(0.604126)"/>
</clipPath>
</defs>
</svg>
