<svg width="184" height="36" viewBox="0 0 184 36" fill="none" xmlns="http://www.w3.org/2000/svg">
<path d="M40.5109 27.8795V6.47607H44.4246L54.4841 21.5503V6.47607H58.3978V27.8795H54.4841L44.4246 12.8359V27.8795H40.5109Z" fill="#BEC0C2"/>
<path d="M68.2956 28.2464C66.7667 28.2464 65.4113 27.92 64.229 27.2679C63.0468 26.6157 62.1193 25.6983 61.4465 24.5161C60.7737 23.3336 60.4375 21.968 60.4375 20.4188C60.4375 18.8492 60.7636 17.4529 61.4161 16.2299C62.0886 15.0068 63.0059 14.059 64.1678 13.3863C65.35 12.6932 66.7362 12.3467 68.3261 12.3467C69.8144 12.3467 71.1289 12.6728 72.2705 13.3251C73.4121 13.9774 74.2987 14.8743 74.9306 16.0158C75.5831 17.1369 75.9091 18.3906 75.9091 19.7767C75.9091 20.0009 75.899 20.2353 75.8784 20.4799C75.8784 20.7246 75.8682 20.9793 75.8479 21.2445H64.3207C64.4022 22.4267 64.8098 23.3542 65.5439 24.0267C66.2979 24.6995 67.2051 25.0357 68.2652 25.0357C69.0601 25.0357 69.7224 24.8625 70.2524 24.5161C70.8028 24.1491 71.2104 23.6803 71.4756 23.1096H75.4505C75.165 24.0676 74.686 24.944 74.0132 25.7389C73.361 26.5135 72.5458 27.1251 71.5673 27.5736C70.6093 28.0222 69.5187 28.2464 68.2956 28.2464ZM68.3261 15.5266C67.3681 15.5266 66.5221 15.8018 65.7884 16.3522C65.0544 16.8821 64.5856 17.6975 64.3819 18.7982H71.9343C71.873 17.7994 71.506 17.0044 70.8336 16.4133C70.1608 15.8222 69.3249 15.5266 68.3261 15.5266Z" fill="#BEC0C2"/>
<path d="M75.1898 27.8792L80.6933 20.2963L75.1898 12.7134H79.3788L83.2313 18.0948L87.0533 12.7134H91.2727L85.7385 20.2963L91.2727 27.8792H87.0533L83.2313 22.4978L79.3788 27.8792H75.1898Z" fill="#BEC0C2"/>
<path d="M98.995 27.8794C97.4048 27.8794 96.1309 27.4921 95.1726 26.7175C94.2147 25.9429 93.7357 24.5669 93.7357 22.5897V15.9852H91.1368V12.7136H93.7357L94.1944 8.64697H97.6494V12.7136H101.747V15.9852H97.6494V22.6202C97.6494 23.3542 97.8023 23.8636 98.1081 24.1491C98.4341 24.414 98.9845 24.5466 99.7591 24.5466H101.655V27.8794H98.995Z" fill="#BEC0C2"/>
<path d="M103.578 27.8794V12.7136H107.033L107.369 14.7622C107.859 14.0284 108.501 13.4474 109.296 13.0193C110.111 12.5709 111.049 12.3467 112.109 12.3467C114.453 12.3467 116.114 13.2538 117.093 15.068C117.643 14.2322 118.377 13.5697 119.294 13.0805C120.232 12.5913 121.251 12.3467 122.352 12.3467C124.329 12.3467 125.848 12.9378 126.908 14.1201C127.967 15.3024 128.498 17.035 128.498 19.318V27.8794H124.584V19.685C124.584 18.3804 124.329 17.3816 123.819 16.6885C123.33 15.9955 122.566 15.6489 121.526 15.6489C120.466 15.6489 119.61 16.0362 118.958 16.8108C118.326 17.5854 118.01 18.6658 118.01 20.0519V27.8794H114.096V19.685C114.096 18.3804 113.841 17.3816 113.332 16.6885C112.822 15.9955 112.037 15.6489 110.977 15.6489C109.938 15.6489 109.092 16.0362 108.44 16.8108C107.808 17.5854 107.492 18.6658 107.492 20.0519V27.8794H103.578Z" fill="#BEC0C2"/>
<path d="M137.962 28.2464C136.494 28.2464 135.169 27.9099 133.987 27.2374C132.825 26.5646 131.897 25.6371 131.204 24.4549C130.532 23.2521 130.195 21.8662 130.195 20.2965C130.195 18.7269 130.542 17.351 131.235 16.1687C131.928 14.966 132.855 14.0284 134.017 13.3557C135.2 12.683 136.524 12.3467 137.992 12.3467C139.44 12.3467 140.744 12.683 141.906 13.3557C143.088 14.0284 144.016 14.966 144.688 16.1687C145.381 17.351 145.728 18.7269 145.728 20.2965C145.728 21.8662 145.381 23.2521 144.688 24.4549C144.016 25.6371 143.088 26.5646 141.906 27.2374C140.724 27.9099 139.409 28.2464 137.962 28.2464ZM137.962 24.8523C138.981 24.8523 139.868 24.4752 140.622 23.7209C141.376 22.9466 141.753 21.805 141.753 20.2965C141.753 18.7881 141.376 17.6567 140.622 16.9025C139.868 16.1279 138.991 15.7406 137.992 15.7406C136.953 15.7406 136.056 16.1279 135.301 16.9025C134.568 17.6567 134.201 18.7881 134.201 20.2965C134.201 21.805 134.568 22.9466 135.301 23.7209C136.056 24.4752 136.943 24.8523 137.962 24.8523Z" fill="#BEC0C2"/>
<path d="M151.05 27.8792L145.484 12.7134H149.582L153.434 24.1793L157.287 12.7134H161.384L155.789 27.8792H151.05Z" fill="#BEC0C2"/>
<path d="M168.946 28.2464C167.418 28.2464 166.062 27.92 164.88 27.2679C163.697 26.6157 162.77 25.6983 162.097 24.5161C161.425 23.3336 161.088 21.968 161.088 20.4188C161.088 18.8492 161.414 17.4529 162.067 16.2299C162.739 15.0068 163.656 14.059 164.818 13.3863C166.001 12.6932 167.387 12.3467 168.977 12.3467C170.465 12.3467 171.78 12.6728 172.921 13.3251C174.063 13.9774 174.949 14.8743 175.581 16.0158C176.234 17.1369 176.56 18.3906 176.56 19.7767C176.56 20.0009 176.55 20.2353 176.529 20.4799C176.529 20.7246 176.519 20.9793 176.498 21.2445H164.971C165.053 22.4267 165.461 23.3542 166.194 24.0267C166.949 24.6995 167.856 25.0357 168.916 25.0357C169.711 25.0357 170.373 24.8625 170.903 24.5161C171.453 24.1491 171.861 23.6803 172.126 23.1096H176.101C175.816 24.0676 175.337 24.944 174.664 25.7389C174.012 26.5135 173.196 27.1251 172.218 27.5736C171.26 28.0222 170.169 28.2464 168.946 28.2464ZM168.977 15.5266C168.019 15.5266 167.173 15.8018 166.439 16.3522C165.705 16.8821 165.236 17.6975 165.032 18.7982H172.585C172.524 17.7994 172.157 17.0044 171.484 16.4133C170.811 15.8222 169.975 15.5266 168.977 15.5266Z" fill="#BEC0C2"/>
<path d="M21.2122 6.05987V15.7355C21.2122 16.8398 20.317 17.7351 19.2126 17.7351H9.53699V13.7359H14.3798L9.29156 8.64769L12.1194 5.81982L17.213 10.9134V6.05987H21.2122Z" fill="#BEC0C2"/>
<path d="M33.0242 17.8721H23.3485C22.2441 17.8721 21.3489 18.7673 21.3489 19.8717V29.5474H25.3482V24.7041L30.4367 29.7926L33.2644 26.9649L28.171 21.8711H33.0242V17.8721Z" fill="#BEC0C2"/>
</svg>
