<svg width="142" height="36" viewBox="0 0 142 36" fill="none" xmlns="http://www.w3.org/2000/svg">
<g clip-path="url(#clip0_2013_1124)">
<path d="M39.0049 25.8822C37.8024 25.8822 36.7289 25.5902 35.7841 25.0061C34.8393 24.4221 34.0921 23.6233 33.5424 22.6098C32.9927 21.5964 32.7179 20.4455 32.7179 19.1572C32.7179 17.8688 32.9927 16.7266 33.5424 15.7302C34.0921 14.7168 34.8393 13.9266 35.7841 13.3598C36.7289 12.7757 37.8024 12.4837 39.0049 12.4837C39.9668 12.4837 40.8084 12.6641 41.53 13.0248C42.2512 13.3855 42.8356 13.8922 43.282 14.545V7.92188H46.58V25.573H43.6428L43.282 23.7436C42.8696 24.3104 42.32 24.8086 41.6332 25.238C40.9632 25.6674 40.0871 25.8822 39.0049 25.8822ZM39.7005 22.9964C40.7656 22.9964 41.6332 22.6442 42.3028 21.9399C42.99 21.2185 43.3336 20.2995 43.3336 19.1829C43.3336 18.0664 42.99 17.156 42.3028 16.4517C41.6332 15.7302 40.7656 15.3695 39.7005 15.3695C38.6527 15.3695 37.7853 15.7217 37.0981 16.4259C36.4111 17.1302 36.0675 18.0406 36.0675 19.1572C36.0675 20.2737 36.4111 21.1927 37.0981 21.9142C37.7853 22.6356 38.6527 22.9964 39.7005 22.9964Z" fill="#BEC0C2"/>
<path d="M55.1197 25.8819C53.8313 25.8819 52.6893 25.607 51.6929 25.0574C50.6965 24.5077 49.9149 23.7347 49.3481 22.7384C48.7813 21.7421 48.4977 20.5912 48.4977 19.2857C48.4977 17.963 48.7729 16.7864 49.3225 15.7557C49.8893 14.7251 50.6621 13.9263 51.6413 13.3595C52.6377 12.7754 53.8057 12.4834 55.1457 12.4834C56.3997 12.4834 57.5073 12.7582 58.4693 13.3079C59.4313 13.8576 60.1785 14.6134 60.7109 15.5754C61.2609 16.5201 61.5357 17.5766 61.5357 18.7446C61.5357 18.9336 61.5269 19.1311 61.5097 19.3372C61.5097 19.5434 61.5013 19.7581 61.4841 19.9814H51.7701C51.8389 20.9777 52.1825 21.7593 52.8009 22.3261C53.4365 22.893 54.2009 23.1764 55.0941 23.1764C55.7641 23.1764 56.3221 23.0304 56.7689 22.7384C57.2325 22.4292 57.5761 22.0341 57.7997 21.5532H61.1493C60.9085 22.3605 60.5049 23.0991 59.9381 23.769C59.3885 24.4218 58.7013 24.9371 57.8769 25.315C57.0693 25.6929 56.1505 25.8819 55.1197 25.8819ZM55.1457 15.1631C54.3381 15.1631 53.6253 15.395 53.0069 15.8588C52.3885 16.3054 51.9937 16.9925 51.8217 17.9201H58.1861C58.1345 17.0784 57.8253 16.4085 57.2585 15.9103C56.6917 15.4122 55.9873 15.1631 55.1457 15.1631Z" fill="#BEC0C2"/>
<path d="M63.2809 25.5727V12.7926H66.1925L66.4501 14.957C66.8453 14.2012 67.4121 13.6 68.1509 13.1534C68.9065 12.7067 69.7913 12.4834 70.8049 12.4834C72.3849 12.4834 73.6133 12.9816 74.4893 13.9779C75.3653 14.9742 75.8033 16.4342 75.8033 18.3581V25.5727H72.5053V18.6673C72.5053 17.568 72.2821 16.7263 71.8353 16.1422C71.3889 15.5582 70.6929 15.2662 69.7481 15.2662C68.8205 15.2662 68.0561 15.5926 67.4549 16.2453C66.8709 16.898 66.5789 17.8084 66.5789 18.9765V25.5727H63.2809Z" fill="#BEC0C2"/>
<path d="M78.9573 25.5727V12.7926H81.8689L82.1521 14.519C82.5645 13.9006 83.1053 13.411 83.7753 13.0503C84.4625 12.6724 85.2525 12.4834 86.1461 12.4834C88.1213 12.4834 89.5213 13.2478 90.3457 14.7766C90.8097 14.0723 91.4281 13.5141 92.2009 13.1018C92.9913 12.6896 93.8501 12.4834 94.7777 12.4834C96.4437 12.4834 97.7237 12.9816 98.6169 13.9779C99.5101 14.9742 99.9565 16.4342 99.9565 18.3581V25.5727H96.6585V18.6673C96.6585 17.568 96.4437 16.7263 96.0145 16.1422C95.6021 15.5582 94.9581 15.2662 94.0821 15.2662C93.1885 15.2662 92.4673 15.5926 91.9177 16.2453C91.3849 16.898 91.1189 17.8084 91.1189 18.9765V25.5727H87.8209V18.6673C87.8209 17.568 87.6061 16.7263 87.1765 16.1422C86.7473 15.5582 86.0857 15.2662 85.1925 15.2662C84.3165 15.2662 83.6037 15.5926 83.0541 16.2453C82.5213 16.898 82.2553 17.8084 82.2553 18.9765V25.5727H78.9573Z" fill="#BEC0C2"/>
<path d="M106.465 25.8819C105.366 25.8819 104.464 25.7101 103.76 25.3666C103.056 25.0058 102.532 24.5334 102.188 23.9494C101.844 23.3654 101.673 22.7212 101.673 22.017C101.673 20.8317 102.136 19.8698 103.064 19.1311C103.992 18.3925 105.383 18.0232 107.238 18.0232H110.485V17.714C110.485 16.8379 110.236 16.1938 109.738 15.7815C109.239 15.3692 108.621 15.1631 107.882 15.1631C107.212 15.1631 106.628 15.3263 106.13 15.6527C105.632 15.9619 105.323 16.4256 105.203 17.044H101.982C102.068 16.1165 102.377 15.3091 102.91 14.622C103.459 13.9349 104.164 13.411 105.022 13.0503C105.881 12.6724 106.843 12.4834 107.908 12.4834C109.729 12.4834 111.163 12.9386 112.211 13.849C113.259 14.7594 113.783 16.0478 113.783 17.714V25.5727H110.974L110.665 23.5114C110.287 24.1985 109.755 24.7654 109.068 25.212C108.398 25.6586 107.53 25.8819 106.465 25.8819ZM107.212 23.3052C108.157 23.3052 108.887 22.9961 109.402 22.3777C109.935 21.7593 110.27 20.9949 110.408 20.0845H107.599C106.723 20.0845 106.096 20.2476 105.718 20.574C105.34 20.8832 105.151 21.2697 105.151 21.7335C105.151 22.2317 105.34 22.6182 105.718 22.893C106.096 23.1678 106.594 23.3052 107.212 23.3052Z" fill="#BEC0C2"/>
<path d="M116.93 25.5727V12.7926H119.868L120.177 15.1889C120.64 14.3644 121.268 13.7116 122.058 13.2306C122.865 12.7325 123.81 12.4834 124.892 12.4834V15.9619H123.964C123.243 15.9619 122.599 16.0735 122.032 16.2968C121.465 16.5201 121.018 16.9066 120.692 17.4563C120.383 18.006 120.228 18.7704 120.228 19.7495V25.5727H116.93Z" fill="#BEC0C2"/>
<path d="M126.118 25.573V7.92188H129.416V17.9719L133.95 12.7929H137.867L132.636 18.6161L138.717 25.573H134.595L129.416 19.1572V25.573H126.118Z" fill="#BEC0C2"/>
<path d="M19.4651 4.11426H6.46338V8.2243H19.4651C21.3183 8.2243 22.8205 9.72658 22.8205 11.5797V22.4006C22.8205 24.2538 21.3183 25.7561 19.4651 25.7561H6.46338V29.8661H19.4651C23.5882 29.8661 26.9306 26.5237 26.9306 22.4006V11.5797C26.9306 7.45666 23.5882 4.11426 19.4651 4.11426Z" fill="#BEC0C2"/>
<path d="M18.8775 12.2315L15.965 9.33154L6.54953 18.7878L3.71256 15.9386L0.800049 18.8385L6.54953 24.6129L18.8775 12.2315Z" fill="#BEC0C2"/>
</g>
<defs>
<clipPath id="clip0_2013_1124">
<rect width="141.2" height="36" fill="white" transform="translate(0.800049)"/>
</clipPath>
</defs>
</svg>
