<svg width="20" height="20" viewBox="0 0 20 20" fill="none" xmlns="http://www.w3.org/2000/svg">
<path fill-rule="evenodd" clip-rule="evenodd" d="M18.6348 16.0062C18.2446 13.0306 17.3454 6.172 16.996 3.5062C16.8736 2.573 16.0782 1.875 15.1368 1.875C12.8002 1.875 7.3548 1.875 5.0182 1.875C4.077 1.875 3.2816 2.573 3.1592 3.5062C2.8096 6.172 1.9104 13.0306 1.5202 16.0062C1.45 16.5414 1.614 17.081 1.97 17.4866C2.326 17.8924 2.8396 18.125 3.3794 18.125H16.7758C17.3156 18.125 17.8292 17.8924 18.1852 17.4866C18.5412 17.081 18.705 16.5414 18.6348 16.0062ZM6.3254 5.0008C6.3254 7.0704 8.0056 8.7508 10.0754 8.7508C12.145 8.7508 13.8254 7.0704 13.8254 5.0008C13.8254 4.6558 13.5452 4.3758 13.2004 4.3758C12.8554 4.3758 12.5754 4.6558 12.5754 5.0008C12.5754 6.3806 11.4552 7.5008 10.0754 7.5008C8.6956 7.5008 7.5754 6.3806 7.5754 5.0008C7.5754 4.6558 7.2952 4.3758 6.9504 4.3758C6.6054 4.3758 6.3254 4.6558 6.3254 5.0008Z" fill="#BEC0C2"/>
</svg>
