<svg width="14" height="10" viewBox="0 0 14 10" fill="none" xmlns="http://www.w3.org/2000/svg">
<path fill-rule="evenodd" clip-rule="evenodd" d="M13.3639 0.407378C13.5513 0.594905 13.6566 0.849213 13.6566 1.11438C13.6566 1.37954 13.5513 1.63385 13.3639 1.82138L5.86852 9.31671C5.76947 9.41579 5.65187 9.49438 5.52244 9.548C5.39301 9.60162 5.25429 9.62922 5.11419 9.62922C4.97409 9.62922 4.83537 9.60162 4.70594 9.548C4.57651 9.49438 4.45891 9.41579 4.35985 9.31671L0.635855 5.59338C0.540344 5.50113 0.464162 5.39079 0.411753 5.26878C0.359344 5.14678 0.331758 5.01556 0.330604 4.88278C0.32945 4.75 0.354752 4.61832 0.405033 4.49542C0.455314 4.37253 0.529567 4.26087 0.62346 4.16698C0.717352 4.07309 0.829004 3.99884 0.951901 3.94856C1.0748 3.89827 1.20648 3.87297 1.33926 3.87413C1.47204 3.87528 1.60326 3.90287 1.72526 3.95528C1.84726 4.00768 1.95761 4.08387 2.04985 4.17938L5.11385 7.24338L11.9492 0.407378C12.0421 0.314451 12.1523 0.240734 12.2737 0.19044C12.3951 0.140145 12.5251 0.114258 12.6565 0.114258C12.7879 0.114258 12.918 0.140145 13.0394 0.19044C13.1607 0.240734 13.271 0.314451 13.3639 0.407378Z" fill="#0E1116"/>
</svg>
