<svg width="50" height="40" viewBox="0 0 50 40" fill="none" xmlns="http://www.w3.org/2000/svg">
<path d="M34.75 10.999H22.75C22.3522 10.999 21.9706 11.1571 21.6894 11.4384C21.4081 11.7197 21.25 12.1012 21.25 12.499V31.999H12.25C11.8522 31.999 11.4706 31.8409 11.1893 31.5597C10.908 31.2784 10.75 30.8968 10.75 30.499V6.49902C10.75 6.10119 10.908 5.71967 11.1893 5.43836C11.4706 5.15706 11.8522 4.99902 12.25 4.99902H33.25C33.6478 4.99902 34.0294 5.15706 34.3106 5.43836C34.5919 5.71967 34.75 6.10119 34.75 6.49902V10.999ZM25.75 13.999H37.75C38.1478 13.999 38.5294 14.1571 38.8106 14.4384C39.0919 14.7197 39.25 15.1012 39.25 15.499V33.499C39.25 33.8968 39.0919 34.2784 38.8106 34.5597C38.5294 34.8409 38.1478 34.999 37.75 34.999H25.75C25.3522 34.999 24.9706 34.8409 24.6894 34.5597C24.4081 34.2784 24.25 33.8968 24.25 33.499V15.499C24.25 15.1012 24.4081 14.7197 24.6894 14.4384C24.9706 14.1571 25.3522 13.999 25.75 13.999Z" fill="#A0BBFF"/>
</svg>
