<svg width="50" height="40" viewBox="0 0 50 40" fill="none" xmlns="http://www.w3.org/2000/svg">
<path d="M33.4716 14.5294H37.7069C39.0714 14.5294 40.1775 15.6355 40.1775 17V32.5294C40.1775 33.8939 39.0714 35 37.7069 35H33.4716C32.1071 35 31.001 33.8939 31.001 32.5294V17C31.001 15.6356 32.1071 14.5294 33.4716 14.5294Z" fill="#A0BBFF"/>
<path d="M22.8834 18.7647H27.1187C28.4832 18.7647 29.5893 19.8708 29.5893 21.2353V32.5294C29.5893 33.8939 28.4832 35 27.1187 35H22.8834C21.5189 35 20.4128 33.8939 20.4128 32.5294V21.2353C20.4128 19.8709 21.5189 18.7647 22.8834 18.7647Z" fill="#A0BBFF"/>
<path d="M12.2952 23H16.5305C17.8949 23 19.001 24.1061 19.001 25.4706V32.5294C19.001 33.8939 17.8949 35 16.5305 35H12.2952C10.9307 35 9.82457 33.8939 9.82457 32.5294V25.4706C9.82457 24.1061 10.9307 23 12.2952 23Z" fill="#A0BBFF"/>
<path d="M30.6481 7.82353C29.8684 7.82353 29.2363 7.19144 29.2363 6.41176C29.2363 5.63209 29.8684 5 30.6481 5H39.1187C39.8984 5 40.5305 5.63209 40.5305 6.41176C40.5305 7.19144 39.8984 7.82353 39.1187 7.82353H30.6481Z" fill="#A0BBFF"/>
<path d="M39.1187 7.47059H30.6481C30.0633 7.47059 29.5893 6.99652 29.5893 6.41176C29.5893 5.82701 30.0633 5.35294 30.6481 5.35294H39.1187C39.7035 5.35294 40.1775 5.82701 40.1775 6.41176C40.1775 6.99652 39.7035 7.47059 39.1187 7.47059Z" fill="#A0BBFF"/>
<path d="M34.8834 12.0588C34.1037 12.0588 33.4716 11.4267 33.4716 10.6471C33.4716 9.86738 34.1037 9.23529 34.8834 9.23529H39.1187C39.8984 9.23529 40.5305 9.86738 40.5305 10.6471C40.5305 11.4267 39.8984 12.0588 39.1187 12.0588H34.8834Z" fill="#A0BBFF"/>
<path d="M39.1187 11.7059H34.8834C34.2986 11.7059 33.8246 11.2318 33.8246 10.6471C33.8246 10.0623 34.2986 9.58823 34.8834 9.58823H39.1187C39.7035 9.58823 40.1775 10.0623 40.1775 10.6471C40.1775 11.2318 39.7035 11.7059 39.1187 11.7059Z" fill="#A0BBFF"/>
<path d="M10.8834 12.7647C10.1037 12.7659 9.47067 12.1348 9.46955 11.355C9.4689 10.9253 9.66404 10.5187 9.9996 10.2504L13.529 7.42684C14.0448 7.0139 14.7779 7.0139 15.2937 7.42684L18.8231 10.2504C19.4446 10.7212 19.5667 11.6067 19.0959 12.2282C18.625 12.8497 17.7395 12.9718 17.118 12.5009C17.0987 12.4863 17.0798 12.4711 17.0613 12.4556L14.4128 10.3379L11.7657 12.4556C11.5153 12.6558 11.2041 12.7649 10.8834 12.7647Z" fill="#A0BBFF"/>
<path d="M17.9422 12.4118C17.7017 12.4117 17.4683 12.3301 17.2801 12.1802L14.4128 9.8861L11.5455 12.1802C11.0763 12.5304 10.412 12.434 10.0617 11.9647C9.7281 11.5176 9.79783 10.8886 10.2213 10.5256L13.7507 7.70209C14.138 7.39305 14.6876 7.39305 15.0749 7.70209L18.6043 10.5256C19.0612 10.8906 19.1357 11.5568 18.7708 12.0137C18.5696 12.2657 18.2646 12.4122 17.9422 12.4118Z" fill="#A0BBFF"/>
<path d="M14.4128 17C13.6331 17 13.001 16.3679 13.001 15.5882V9.94118C13.001 9.1615 13.6331 8.52941 14.4128 8.52941C15.1925 8.52941 15.8246 9.1615 15.8246 9.94118V15.5882C15.8246 16.368 15.1925 17 14.4128 17Z" fill="#A0BBFF"/>
<path d="M14.4128 16.6471C13.828 16.6471 13.354 16.173 13.354 15.5882V9.94118C13.354 9.35642 13.828 8.88235 14.4128 8.88235C14.9976 8.88235 15.4716 9.35642 15.4716 9.94118V15.5882C15.4716 16.173 14.9976 16.6471 14.4128 16.6471Z" fill="#A0BBFF"/>
</svg>
