<svg width="50" height="40" viewBox="0 0 50 40" fill="none" xmlns="http://www.w3.org/2000/svg">
<path d="M24.997 21.3241C19.503 21.3241 14.899 19.7101 13.642 17.5341C13.421 17.9171 13.292 18.3151 13.292 18.7281V22.2891C13.292 25.0401 18.534 27.2721 24.997 27.2721C31.464 27.2721 36.708 25.0401 36.708 22.2891V18.7281C36.708 18.3151 36.577 17.9171 36.354 17.5341C35.097 19.7091 30.497 21.3241 24.997 21.3241Z" fill="#A0BBFF"/>
<path d="M24.997 28.6801C19.503 28.6801 14.899 27.0641 13.642 24.8921C13.421 25.2731 13.292 25.6711 13.292 26.0831V29.6471C13.292 32.3991 18.534 34.6301 24.997 34.6301C31.464 34.6301 36.708 32.4001 36.708 29.6471V26.0831C36.708 25.6711 36.577 25.2731 36.354 24.8931C35.097 27.0641 30.497 28.6801 24.997 28.6801Z" fill="#A0BBFF"/>
<path d="M36.388 10.4121C36.158 12.4281 31.156 14.0411 24.997 14.0411C18.841 14.0411 13.839 12.4281 13.61 10.4131C13.409 10.7791 13.292 11.1611 13.292 11.5541V15.1151C13.292 17.8671 18.534 20.0981 24.997 20.0981C31.464 20.0981 36.708 17.8681 36.708 15.1151V11.5541C36.708 11.1611 36.589 10.7791 36.388 10.4121Z" fill="#A0BBFF"/>
<path d="M24.997 12.9111C31.3 12.9111 36.407 11.2241 36.407 9.14012C36.407 7.05812 31.3 5.37012 24.997 5.37012C18.698 5.37112 13.589 7.05912 13.589 9.14112C13.589 11.2241 18.698 12.9111 24.997 12.9111Z" fill="#A0BBFF"/>
</svg>
