<svg width="50" height="40" viewBox="0 0 50 40" fill="none" xmlns="http://www.w3.org/2000/svg">
<path d="M23.7503 34.999C26.0142 34.999 27.908 33.3852 28.3428 31.249H19.1578C19.5929 33.3852 21.4867 34.999 23.7503 34.999Z" fill="#A0BBFF"/>
<path d="M32.5154 19.9979C32.5103 19.9979 32.5053 19.999 32.5003 19.999C27.6766 19.999 23.7503 16.0739 23.7503 11.2491C23.7503 9.92273 24.0554 8.66891 24.5867 7.54144C24.3116 7.51535 24.0328 7.4991 23.7503 7.4991C18.918 7.4991 15.0004 11.4164 15.0004 16.249V19.734C15.0004 22.2077 13.9167 24.5428 12.0153 26.1502C11.3816 26.6915 11.1003 27.554 11.3278 28.3953C11.5928 29.374 12.5603 29.9991 13.5754 29.9991H33.9191C34.9841 29.9991 35.988 29.309 36.204 28.2653C36.3716 27.4578 36.0841 26.6515 35.4579 26.1253C33.6403 24.6016 32.5891 22.3627 32.5154 19.9979Z" fill="#A0BBFF"/>
<path d="M38.7503 11.2491C38.7503 14.7009 35.9523 17.4989 32.5003 17.4989C29.0485 17.4989 26.2504 14.7009 26.2504 11.2491C26.2504 7.79733 29.0485 4.99902 32.5003 4.99902C35.9523 4.99902 38.7503 7.79733 38.7503 11.2491Z" fill="#A0BBFF"/>
</svg>
