<svg width="40" height="40" viewBox="0 0 40 40" fill="none" xmlns="http://www.w3.org/2000/svg">
<g clip-path="url(#clip0_2293_506)">
<path d="M19.9552 0.189453C-2.68441 0.647298 -7.32095 31.6206 13.8155 38.8729V26.7217L10.3805 23.2859C8.00503 24.5039 5.07827 22.6997 5.10422 20.0182C5.10422 18.0052 6.74195 16.3675 8.75497 16.3675C11.4357 16.3418 13.2399 19.2668 12.0232 21.6423L15.7989 25.4191C16.0167 25.637 16.1391 25.9325 16.1391 26.2405V39.4771C17.0052 39.6466 17.8912 39.7597 18.7933 39.8121V17.256C14.9295 15.8925 15.8079 10.2266 19.9552 10.1452C24.1032 10.2269 24.9803 15.8933 21.117 17.256V39.8121C22.0191 39.7597 22.9051 39.6466 23.7712 39.4771V26.2406C23.7712 25.9325 23.8936 25.637 24.1114 25.4192L27.8871 21.6424C26.6706 19.267 28.4747 16.3416 31.1554 16.3675C33.1684 16.3675 34.8062 18.0053 34.8062 20.0183C34.8319 22.6997 31.9054 24.5041 29.5298 23.2859L26.0949 26.7217V38.8729C47.245 31.6108 42.5784 0.641179 19.9552 0.189453Z" fill="#BEC0C2"/>
<path d="M19.9552 12.4688C19.2234 12.4688 18.628 13.0642 18.628 13.796C18.7009 15.5565 21.2096 15.5559 21.2823 13.796C21.2823 13.0642 20.6869 12.4688 19.9552 12.4688Z" fill="#BEC0C2"/>
<path d="M32.4825 20.0183C32.4825 19.2865 31.8871 18.6911 31.1553 18.6911C29.3948 18.764 29.3954 21.2728 31.1553 21.3454C31.8871 21.3454 32.4825 20.75 32.4825 20.0183Z" fill="#BEC0C2"/>
<path d="M7.42791 20.0183C7.42791 20.75 8.02331 21.3454 8.75504 21.3454C10.5155 21.2725 10.515 18.7638 8.75504 18.6911C8.02324 18.6911 7.42791 19.2865 7.42791 20.0183Z" fill="#BEC0C2"/>
</g>
<defs>
<clipPath id="clip0_2293_506">
<rect width="39.6226" height="39.6226" fill="white" transform="translate(0.188965 0.189453)"/>
</clipPath>
</defs>
</svg>
