<svg width="50" height="50" viewBox="0 0 50 50" fill="none" xmlns="http://www.w3.org/2000/svg">
<path d="M15.7715 13.0459C18.6839 13.0459 21.0449 10.6849 21.0449 7.77246C21.0449 4.86002 18.6839 2.49902 15.7715 2.49902C12.859 2.49902 10.498 4.86002 10.498 7.77246C10.498 10.6849 12.859 13.0459 15.7715 13.0459Z" fill="#A0BBFF"/>
<path d="M34.2285 13.0459C37.141 13.0459 39.502 10.6849 39.502 7.77246C39.502 4.86002 37.141 2.49902 34.2285 2.49902C31.3161 2.49902 28.9551 4.86002 28.9551 7.77246C28.9551 10.6849 31.3161 13.0459 34.2285 13.0459Z" fill="#A0BBFF"/>
<path d="M43.457 23.5928H6.54297V26.9157L19.7266 36.1443V47.499L30.2734 43.983V36.1443L43.457 26.9157V23.5928Z" fill="#A0BBFF"/>
<path d="M7.86133 20.9561H23.6816C23.6816 16.5941 20.1334 13.0459 15.7715 13.0459C11.4096 13.0459 7.86133 16.5941 7.86133 20.9561Z" fill="#A0BBFF"/>
<path d="M26.3184 20.9561H42.1387C42.1387 16.5941 38.5904 13.0459 34.2285 13.0459C29.8666 13.0459 26.3184 16.5941 26.3184 20.9561Z" fill="#A0BBFF"/>
</svg>
