<svg width="21" height="20" viewBox="0 0 21 20" fill="none" xmlns="http://www.w3.org/2000/svg">
<path d="M11.9595 0C13.0845 0.003 13.6555 0.009 14.1485 0.023L14.3425 0.03C14.5665 0.038 14.7875 0.0479999 15.0545 0.0599999C16.1185 0.11 16.8445 0.278 17.4815 0.525C18.1415 0.779 18.6975 1.123 19.2535 1.678C19.7622 2.17773 20.1557 2.78247 20.4065 3.45C20.6535 4.087 20.8215 4.813 20.8715 5.878C20.8835 6.144 20.8935 6.365 20.9015 6.59L20.9075 6.784C20.9225 7.276 20.9285 7.847 20.9305 8.972L20.9315 9.718V11.028C20.9339 11.7574 20.9262 12.4868 20.9085 13.216L20.9025 13.41C20.8945 13.635 20.8845 13.856 20.8725 14.122C20.8225 15.187 20.6525 15.912 20.4065 16.55C20.1557 17.2175 19.7622 17.8223 19.2535 18.322C18.7537 18.8307 18.149 19.2242 17.4815 19.475C16.8445 19.722 16.1185 19.89 15.0545 19.94L14.3425 19.97L14.1485 19.976C13.6555 19.99 13.0845 19.997 11.9595 19.999L11.2135 20H9.90448C9.17474 20.0026 8.445 19.9949 7.71548 19.977L7.52148 19.971C7.28409 19.962 7.04675 19.9517 6.80948 19.94C5.74548 19.89 5.01948 19.722 4.38148 19.475C3.71431 19.2241 3.10992 18.8306 2.61048 18.322C2.10142 17.8224 1.70759 17.2176 1.45648 16.55C1.20948 15.913 1.04148 15.187 0.991477 14.122L0.961477 13.41L0.956477 13.216C0.938043 12.4868 0.929709 11.7574 0.931477 11.028V8.972C0.928709 8.2426 0.936043 7.5132 0.953477 6.784L0.960477 6.59C0.968477 6.365 0.978477 6.144 0.990477 5.878C1.04048 4.813 1.20848 4.088 1.45548 3.45C1.70717 2.7822 2.1017 2.17744 2.61148 1.678C3.11063 1.16955 3.71466 0.776074 4.38148 0.525C5.01948 0.278 5.74448 0.11 6.80948 0.0599999C7.07548 0.0479999 7.29748 0.038 7.52148 0.03L7.71548 0.0239999C8.44467 0.00623271 9.17407 -0.0014347 9.90348 0.000999928L11.9595 0ZM10.9315 5C9.60539 5 8.33362 5.52678 7.39594 6.46447C6.45826 7.40215 5.93148 8.67392 5.93148 10C5.93148 11.3261 6.45826 12.5979 7.39594 13.5355C8.33362 14.4732 9.60539 15 10.9315 15C12.2576 15 13.5293 14.4732 14.467 13.5355C15.4047 12.5979 15.9315 11.3261 15.9315 10C15.9315 8.67392 15.4047 7.40215 14.467 6.46447C13.5293 5.52678 12.2576 5 10.9315 5ZM10.9315 7C11.3254 6.99993 11.7156 7.07747 12.0796 7.22817C12.4436 7.37887 12.7743 7.5998 13.0529 7.87833C13.3316 8.15686 13.5526 8.48754 13.7034 8.85149C13.8542 9.21544 13.9319 9.60553 13.932 9.9995C13.932 10.3935 13.8545 10.7836 13.7038 11.1476C13.5531 11.5116 13.3322 11.8423 13.0537 12.121C12.7751 12.3996 12.4444 12.6206 12.0805 12.7714C11.7165 12.9223 11.3264 12.9999 10.9325 13C10.1368 13 9.37377 12.6839 8.81116 12.1213C8.24855 11.5587 7.93248 10.7956 7.93248 10C7.93248 9.20435 8.24855 8.44129 8.81116 7.87868C9.37377 7.31607 10.1368 7 10.9325 7M16.1825 3.5C15.851 3.5 15.533 3.6317 15.2986 3.86612C15.0642 4.10054 14.9325 4.41848 14.9325 4.75C14.9325 5.08152 15.0642 5.39946 15.2986 5.63388C15.533 5.8683 15.851 6 16.1825 6C16.514 6 16.8319 5.8683 17.0664 5.63388C17.3008 5.39946 17.4325 5.08152 17.4325 4.75C17.4325 4.41848 17.3008 4.10054 17.0664 3.86612C16.8319 3.6317 16.514 3.5 16.1825 3.5Z" fill="#A0BBFF"/>
</svg>
