<svg width="41" height="40" viewBox="0 0 41 40" fill="none" xmlns="http://www.w3.org/2000/svg">
<path fill-rule="evenodd" clip-rule="evenodd" d="M40.0921 18.4483C40.868 22.2083 40.5087 25.7054 39.255 28.6217L39.3215 28.6204C38.247 31.6092 34.6716 37.8621 26.2545 39.655C25.9342 39.7233 25.6147 39.7775 25.2957 39.8179C24.4927 39.9379 23.6593 40 22.7997 40C12.8313 40 3.03021 31.6633 0.908213 21.3792C-0.102545 16.4807 0.811304 12.024 3.12293 8.69958C4.19664 6.59971 9.82976 1.507 14.3756 0.517416C14.4987 0.490624 14.617 0.469625 14.7308 0.454208C15.9322 0.156916 17.2138 0 18.5629 0C28.3506 0 37.9898 8.25958 40.0921 18.4483ZM36.6656 17.5862C38.3159 25.585 33.422 32.0687 25.7345 32.0687C18.0473 32.0687 10.4774 25.585 8.82704 17.5862C7.17659 9.58758 12.0705 3.10342 19.7579 3.10342C27.4451 3.10342 35.0149 9.58758 36.6656 17.5862ZM25.2657 27.5863C30.9556 27.5863 34.6015 22.9013 33.4089 17.1217C32.2167 11.3424 26.6372 6.65729 20.9472 6.65729C15.2572 6.65729 11.6114 11.3424 12.8039 17.1217C13.9964 22.9013 19.5757 27.5863 25.2657 27.5863ZM30.3343 16.6881C31.0823 20.3136 28.7332 23.2525 25.0869 23.2525C21.4411 23.2525 17.8788 20.3136 17.1307 16.6881C16.3827 13.0625 18.7319 10.1235 22.3782 10.1235C26.024 10.1235 29.5863 13.0625 30.3343 16.6881ZM26.9911 16.6882C27.3602 18.4775 26.2008 19.928 24.4012 19.928C22.6017 19.928 20.8438 18.4775 20.4745 16.6882C20.1053 14.8988 21.2647 13.4483 23.0643 13.4483C24.8638 13.4483 26.622 14.8988 26.9911 16.6882Z" fill="#00B2FF"/>
</svg>
