<svg width="23" height="40" viewBox="0 0 23 40" fill="none" xmlns="http://www.w3.org/2000/svg">
<path d="M0 25.3169C0 27.274 1.50184 28.8612 3.3544 28.8612C5.20695 28.8612 6.70879 27.274 6.70879 25.3169C6.70879 23.882 4.73971 22.5321 4.73971 20.0004C4.73971 17.722 6.70879 16.1189 6.70879 14.684C6.70879 12.7269 5.20695 11.1396 3.3544 11.1396C1.50184 11.1396 0 12.7269 0 14.684C0 16.1189 1.96913 17.722 1.96908 20.0004C1.96908 22.2789 0 23.882 0 25.3169Z" fill="#00865E"/>
<path d="M16.2913 3.54433C16.2913 1.58721 17.793 0 19.6456 0C21.4982 0 23 1.58721 23 3.54433C23 4.1606 22.6367 4.76124 22.2223 5.44655C21.6718 6.35684 21.0309 7.41649 21.0309 8.8608C21.0309 10.1311 21.643 11.1915 22.1846 12.1299C22.6145 12.8745 23 13.5423 23 14.1773C23 14.2623 22.9972 14.3468 22.9916 14.4304C22.9972 14.514 23 14.5984 23 14.6835C23 15.2998 22.6367 15.9004 22.2223 16.5857C21.6718 17.496 21.0309 18.5557 21.0309 20C21.0309 21.2703 21.643 22.3307 22.1846 23.2691C22.6145 24.0137 23 24.6816 23 25.3164C23 25.4016 22.9972 25.486 22.9916 25.5696C22.9972 25.6532 23 25.7376 23 25.8227C23 26.4577 22.6145 27.1255 22.1846 27.8701C21.643 28.8085 21.0309 29.8689 21.0309 31.1392C21.0309 32.5835 21.6718 33.6432 22.2223 34.5535C22.6367 35.2388 23 35.8394 23 36.4557C23 38.4128 21.4982 40 19.6456 40C17.793 40 16.2913 38.4128 16.2913 36.4557C16.2913 35.8208 16.6767 35.153 17.1066 34.4083C17.6482 33.47 18.2603 32.4096 18.2603 31.1392C18.2603 29.8689 17.6482 28.8085 17.1066 27.8701C16.6767 27.1255 16.2913 26.4577 16.2913 25.8227C16.2913 25.7377 16.2941 25.6532 16.2997 25.5696C16.2941 25.486 16.2913 25.4016 16.2913 25.3164C16.2913 24.6816 16.6767 24.0137 17.1066 23.2691C17.6482 22.3307 18.2603 21.2703 18.2603 20C18.2603 18.7296 17.6482 17.6692 17.1066 16.7308C16.6767 15.9862 16.2913 15.3184 16.2913 14.6835C16.2913 14.5984 16.2941 14.514 16.2997 14.4304C16.2941 14.3468 16.2913 14.2624 16.2913 14.1773C16.2913 13.5423 16.6767 12.8745 17.1066 12.1299C17.6482 11.1915 18.2603 10.1311 18.2603 8.8608C18.2603 7.59042 17.6482 6.53006 17.1066 5.59165C16.6767 4.84702 16.2913 4.17921 16.2913 3.54433Z" fill="#00865E"/>
<path d="M11.5013 34.4302C9.64876 34.4302 8.14697 32.843 8.14697 30.8858C8.14697 30.251 8.53246 29.5831 8.96227 28.8385C9.50395 27.9001 10.1161 26.8397 10.1161 25.5694C10.1161 24.299 9.50395 23.2386 8.96227 22.3003C8.53246 21.5556 8.14697 20.8878 8.14697 20.2529C8.14697 20.1678 8.14979 20.0834 8.15539 19.9998C8.14979 19.9161 8.14697 19.8317 8.14697 19.7466C8.14697 19.1117 8.53246 18.4439 8.96227 17.6992C9.50395 16.7609 10.1161 15.7005 10.1161 14.4301C10.1161 13.1598 9.50395 12.0993 8.96227 11.161C8.53246 10.4164 8.14697 9.74855 8.14697 9.11367C8.14697 7.15654 9.64876 5.56934 11.5013 5.56934C13.3539 5.56934 14.8557 7.15654 14.8557 9.11367C14.8557 9.72993 14.4925 10.3306 14.078 11.0159C13.5275 11.9261 12.8866 12.9858 12.8866 14.4301C12.8866 15.7005 13.4987 16.7609 14.0404 17.6992C14.4702 18.4439 14.8557 19.1117 14.8557 19.7466C14.8557 19.8317 14.8529 19.9161 14.8473 19.9997C14.8529 20.0833 14.8557 20.1678 14.8557 20.2529C14.8557 20.8878 14.4702 21.5556 14.0404 22.3003C13.4987 23.2386 12.8866 24.299 12.8866 25.5694C12.8866 27.0137 13.5275 28.0733 14.078 28.9836C14.4925 29.6689 14.8557 30.2696 14.8557 30.8858C14.8557 32.843 13.3539 34.4302 11.5013 34.4302Z" fill="#00865E"/>
</svg>
