<svg width="41" height="40" viewBox="0 0 41 40" fill="none" xmlns="http://www.w3.org/2000/svg">
<path fill-rule="evenodd" clip-rule="evenodd" d="M20.5 0C31.5457 0 40.5 8.95431 40.5 20C40.5 31.0457 31.5457 40 20.5 40C9.45431 40 0.5 31.0457 0.5 20C0.5 8.95431 9.45431 0 20.5 0ZM20.5012 3.07692L20.5 12.3077C16.2516 12.3077 12.8077 15.7516 12.8077 20C12.8077 24.2484 16.2516 27.6923 20.5 27.6923L20.5 36.9225L20.8884 36.9187C30.0554 36.7123 37.4231 29.2165 37.4231 20C37.4231 10.654 29.847 3.0776 20.5012 3.07692ZM20.5 12.5C24.6421 12.5 28 15.8579 28 20C28 24.048 24.793 27.347 20.7812 27.4948L20.5 27.5V12.5Z" fill="#AF2D2E"/>
</svg>
