<svg width="37" height="36" viewBox="0 0 37 36" fill="none" xmlns="http://www.w3.org/2000/svg">
<path fill-rule="evenodd" clip-rule="evenodd" d="M18.4999 34.7728C27.763 34.7728 35.2724 27.2634 35.2724 18.0002C35.2724 8.73694 27.763 1.22754 18.4999 1.22754C9.23659 1.22754 1.72723 8.73694 1.72723 18.0002C1.72723 27.2634 9.23659 34.7728 18.4999 34.7728ZM30.8436 16.2597C29.2796 18.0886 27.0767 19.2275 24.636 19.2275C19.8912 19.2275 16.045 14.9234 16.045 9.61394C16.045 8.27817 16.2884 7.00599 16.7284 5.85003C10.783 6.75301 6.22707 11.8865 6.22707 18.084C6.22707 19.8923 6.61492 21.61 7.31197 23.1584C8.01908 22.5006 9.01281 22.0913 10.1134 22.0913C12.2598 22.0913 13.9998 23.6481 13.9998 25.5686C13.9998 26.858 13.2152 27.9836 12.0499 28.584C13.95 29.772 16.1958 30.4592 18.602 30.4592C25.4366 30.4592 30.9772 24.9186 30.9772 18.084C30.9772 17.4642 30.9313 16.8551 30.8436 16.2597Z" fill="#D200BD"/>
<path d="M30.8436 16.2597L32.0574 16.08L31.6635 13.4123L29.9109 15.4618L30.8436 16.2597ZM16.7284 5.85003L17.8755 6.28629L18.6236 4.32054L16.5442 4.63636L16.7284 5.85003ZM7.31197 23.1584L6.19295 23.6619L6.89528 25.2222L8.148 24.0567L7.31197 23.1584ZM12.0499 28.584L11.4879 27.4926L9.57038 28.4804L11.3993 29.6244L12.0499 28.584ZM34.0455 17.9999C34.0455 26.5855 27.0855 33.5455 18.5 33.5455V36C28.441 36 36.5 27.9411 36.5 17.9999H34.0455ZM18.5 2.45454C27.0855 2.45454 34.0455 9.41442 34.0455 17.9999H36.5C36.5 8.05883 28.441 0 18.5 0V2.45454ZM2.9546 17.9999C2.9546 9.41442 9.91448 2.45454 18.5 2.45454V0C8.55889 0 0.500061 8.05883 0.500061 17.9999H2.9546ZM18.5 33.5455C9.91448 33.5455 2.9546 26.5855 2.9546 17.9999H0.500061C0.500061 27.9411 8.55889 36 18.5 36V33.5455ZM24.6361 20.4545C27.4752 20.4545 30.0064 19.1269 31.7764 17.057L29.9109 15.4618C28.5531 17.0496 26.6783 18 24.6361 18V20.4545ZM14.8178 9.61364C14.8178 15.4674 19.0874 20.4545 24.6361 20.4545V18C20.6953 18 17.2723 14.3787 17.2723 9.61364H14.8178ZM15.5815 5.41319C15.0886 6.70833 14.8178 8.12837 14.8178 9.61364H17.2723C17.2723 8.42734 17.4885 7.30311 17.8755 6.28629L15.5815 5.41319ZM7.45444 18.0837C7.45444 12.5019 11.558 7.87636 16.9127 7.06308L16.5442 4.63636C10.0081 5.62908 4.9999 11.2704 4.9999 18.0837H7.45444ZM8.43114 22.6543C7.804 21.2612 7.45444 19.7149 7.45444 18.0837H4.9999C4.9999 20.0691 5.42603 21.9582 6.19295 23.6619L8.43114 22.6543ZM10.1135 20.8637C8.70913 20.8637 7.41496 21.3862 6.47608 22.2596L8.148 24.0567C8.62334 23.6145 9.31667 23.3182 10.1135 23.3182V20.8637ZM15.2271 25.5683C15.2271 22.8452 12.8058 20.8637 10.1135 20.8637V23.3182C11.714 23.3182 12.7726 24.4505 12.7726 25.5683H15.2271ZM12.612 29.6749C14.1226 28.8963 15.2271 27.3843 15.2271 25.5683H12.7726C12.7726 26.3312 12.308 27.0703 11.4879 27.4926L12.612 29.6749ZM18.6021 29.2314C16.4326 29.2314 14.4114 28.6131 12.7007 27.5431L11.3993 29.6244C13.4888 30.9308 15.9591 31.6859 18.6021 31.6859V29.2314ZM29.7498 18.0837C29.7498 24.2403 24.7586 29.2314 18.6021 29.2314V31.6859C26.1142 31.6859 32.2043 25.5958 32.2043 18.0837H29.7498ZM29.6295 16.4388C29.7085 16.975 29.7498 17.5242 29.7498 18.0837H32.2043C32.2043 17.4037 32.1542 16.7346 32.0574 16.08L29.6295 16.4388Z" fill="#D200BD"/>
</svg>
