<svg width="21" height="20" viewBox="0 0 21 20" fill="none" xmlns="http://www.w3.org/2000/svg">
<path fill-rule="evenodd" clip-rule="evenodd" d="M17.5986 0C18.4826 0 19.3305 0.35119 19.9556 0.976311C20.5807 1.60143 20.9319 2.44928 20.9319 3.33333V16.6667C20.9319 17.5507 20.5807 18.3986 19.9556 19.0237C19.3305 19.6488 18.4826 20 17.5986 20H4.26522C3.38116 20 2.53332 19.6488 1.9082 19.0237C1.28307 18.3986 0.931885 17.5507 0.931885 16.6667V3.33333C0.931885 2.44928 1.28307 1.60143 1.9082 0.976311C2.53332 0.35119 3.38116 0 4.26522 0H17.5986ZM6.48744 7.77778C6.19276 7.77778 5.91014 7.89484 5.70177 8.10322C5.49339 8.31159 5.37633 8.5942 5.37633 8.88889V14.4444C5.37633 14.7391 5.49339 15.0217 5.70177 15.2301C5.91014 15.4385 6.19276 15.5556 6.48744 15.5556C6.78213 15.5556 7.06474 15.4385 7.27311 15.2301C7.48149 15.0217 7.59855 14.7391 7.59855 14.4444V8.88889C7.59855 8.5942 7.48149 8.31159 7.27311 8.10322C7.06474 7.89484 6.78213 7.77778 6.48744 7.77778ZM9.82077 6.66667C9.52609 6.66667 9.24347 6.78373 9.0351 6.9921C8.82673 7.20048 8.70966 7.48309 8.70966 7.77778V14.4444C8.70966 14.7391 8.82673 15.0217 9.0351 15.2301C9.24347 15.4385 9.52609 15.5556 9.82077 15.5556C10.1155 15.5556 10.3981 15.4385 10.6064 15.2301C10.8148 15.0217 10.9319 14.7391 10.9319 14.4444V10.3778C11.2708 9.99556 11.843 9.54667 12.4797 9.27444C12.8497 9.11667 13.4063 9.05222 13.793 9.17445C13.9213 9.20699 14.0355 9.28029 14.1186 9.38333C14.1763 9.46111 14.2652 9.63445 14.2652 10V14.4444C14.2652 14.7391 14.3823 15.0217 14.5907 15.2301C14.799 15.4385 15.0816 15.5556 15.3763 15.5556C15.671 15.5556 15.9536 15.4385 16.162 15.2301C16.3704 15.0217 16.4874 14.7391 16.4874 14.4444V10C16.4874 9.25556 16.2986 8.59333 15.9052 8.06222C15.5433 7.58062 15.0367 7.22747 14.4597 7.05444C13.4574 6.74 12.3474 6.91444 11.6063 7.23222C11.3691 7.33427 11.1379 7.45002 10.9141 7.57889C10.8675 7.32288 10.7326 7.09133 10.5328 6.92463C10.333 6.75792 10.081 6.66663 9.82077 6.66667ZM6.48744 4.44444C6.19276 4.44444 5.91014 4.56151 5.70177 4.76988C5.49339 4.97826 5.37633 5.26087 5.37633 5.55556C5.37633 5.85024 5.49339 6.13286 5.70177 6.34123C5.91014 6.5496 6.19276 6.66667 6.48744 6.66667C6.78213 6.66667 7.06474 6.5496 7.27311 6.34123C7.48149 6.13286 7.59855 5.85024 7.59855 5.55556C7.59855 5.26087 7.48149 4.97826 7.27311 4.76988C7.06474 4.56151 6.78213 4.44444 6.48744 4.44444Z" fill="#A0BBFF"/>
</svg>
