<svg width="30" height="30" viewBox="0 0 30 30" fill="none" xmlns="http://www.w3.org/2000/svg">
<path d="M14.9991 0C-2.14228 0.346653 -5.65279 23.7978 10.3505 29.2889V20.0887L7.74973 17.4872C5.95114 18.4094 3.73516 17.0435 3.75481 15.0132C3.75481 13.489 4.99481 12.249 6.51894 12.249C8.5486 12.2296 9.91469 14.4442 8.99349 16.2428L11.8522 19.1024C12.0171 19.2674 12.1098 19.4911 12.1098 19.7243V29.7463C12.7656 29.8747 13.4363 29.9602 14.1194 29.9999V12.9218C11.1939 11.8894 11.859 7.59951 14.9991 7.53787C18.1397 7.5998 18.8038 11.89 15.8788 12.9218V29.9999C16.5617 29.9603 17.2326 29.8747 17.8884 29.7463V19.7244C17.8884 19.4911 17.981 19.2674 18.1459 19.1025L21.0047 16.2429C20.0836 14.4444 21.4495 12.2294 23.4793 12.2491C25.0034 12.2491 26.2434 13.4891 26.2434 15.0132C26.2629 17.0434 24.0471 18.4096 22.2485 17.4872L19.6477 20.0887V29.2889C35.6613 23.7904 32.128 0.34202 14.9991 0Z" fill="url(#paint0_linear_2141_3618)"/>
<path d="M14.9991 9.29723C14.445 9.29723 13.9942 9.74804 13.9942 10.3021C14.0494 11.635 15.9489 11.6346 16.0039 10.3021C16.0039 9.74804 15.5531 9.29723 14.9991 9.29723Z" fill="url(#paint1_linear_2141_3618)"/>
<path d="M24.484 15.0132C24.484 14.4592 24.0332 14.0084 23.4792 14.0084C22.1462 14.0636 22.1467 15.963 23.4792 16.0181C24.0332 16.0181 24.484 15.5672 24.484 15.0132Z" fill="url(#paint2_linear_2141_3618)"/>
<path d="M5.51417 15.0132C5.51417 15.5672 5.96498 16.0181 6.519 16.0181C7.85195 15.9629 7.85154 14.0634 6.519 14.0084C5.96492 14.0084 5.51417 14.4592 5.51417 15.0132Z" fill="url(#paint3_linear_2141_3618)"/>
<defs>
<linearGradient id="paint0_linear_2141_3618" x1="14.9992" y1="0" x2="14.9992" y2="29.9999" gradientUnits="userSpaceOnUse">
<stop stop-color="#0046F7"/>
<stop offset="1" stop-color="#003CD2"/>
</linearGradient>
<linearGradient id="paint1_linear_2141_3618" x1="14.9992" y1="0" x2="14.9992" y2="29.9999" gradientUnits="userSpaceOnUse">
<stop stop-color="#0046F7"/>
<stop offset="1" stop-color="#003CD2"/>
</linearGradient>
<linearGradient id="paint2_linear_2141_3618" x1="14.9992" y1="0" x2="14.9992" y2="29.9999" gradientUnits="userSpaceOnUse">
<stop stop-color="#0046F7"/>
<stop offset="1" stop-color="#003CD2"/>
</linearGradient>
<linearGradient id="paint3_linear_2141_3618" x1="14.9992" y1="0" x2="14.9992" y2="29.9999" gradientUnits="userSpaceOnUse">
<stop stop-color="#0046F7"/>
<stop offset="1" stop-color="#003CD2"/>
</linearGradient>
</defs>
</svg>
