<svg width="140" height="32" viewBox="0 0 140 32" fill="none" xmlns="http://www.w3.org/2000/svg">
<g clip-path="url(#clip0_2158_82)">
<g filter="url(#filter0_i_2158_82)">
<path d="M14.9998 1C-2.1415 1.34665 -5.65202 24.7978 10.3513 30.2889V21.0887L7.75051 18.4872C5.95192 19.4094 3.73594 18.0435 3.75559 16.0132C3.75559 14.489 4.99559 13.249 6.51972 13.249C8.54938 13.2296 9.91547 15.4442 8.99426 17.2428L11.853 20.1024C12.0179 20.2674 12.1106 20.4911 12.1106 20.7243V30.7463C12.7663 30.8747 13.4371 30.9602 14.1202 30.9999V13.9218C11.1947 12.8894 11.8598 8.59951 14.9999 8.53787C18.1405 8.5998 18.8046 12.89 15.8795 13.9218V30.9999C16.5625 30.9603 17.2334 30.8747 17.8891 30.7463V20.7244C17.8891 20.4911 17.9818 20.2674 18.1467 20.1025L21.0054 17.2429C20.0844 15.4444 21.4503 13.2294 23.48 13.2491C25.0042 13.2491 26.2442 14.4891 26.2442 16.0132C26.2636 18.0434 24.0479 19.4096 22.2492 18.4872L19.6485 21.0887V30.2889C35.6621 24.7904 32.1288 1.34202 14.9998 1Z" fill="url(#paint0_linear_2158_82)"/>
<path d="M14.9998 10.2972C14.4458 10.2972 13.995 10.748 13.995 11.3021C14.0502 12.635 15.9497 12.6346 16.0047 11.3021C16.0047 10.748 15.5539 10.2972 14.9998 10.2972Z" fill="url(#paint1_linear_2158_82)"/>
<path d="M24.4848 16.0132C24.4848 15.4592 24.034 15.0084 23.48 15.0084C22.147 15.0636 22.1474 16.963 23.48 17.0181C24.034 17.0181 24.4848 16.5672 24.4848 16.0132Z" fill="url(#paint2_linear_2158_82)"/>
<path d="M5.51495 16.0132C5.51495 16.5672 5.96576 17.0181 6.51978 17.0181C7.85273 16.9629 7.85232 15.0634 6.51978 15.0084C5.9657 15.0084 5.51495 15.4592 5.51495 16.0132Z" fill="url(#paint3_linear_2158_82)"/>
</g>
</g>
<path d="M49.616 7.32V9.552H42.536V14.472H48.056V16.704H42.536V24H39.8V7.32H49.616ZM54.8876 6.24V24H52.1516V6.24H54.8876ZM70.4557 10.776V24H67.7197V22.44C67.2877 22.984 66.7197 23.416 66.0157 23.736C65.3277 24.04 64.5917 24.192 63.8077 24.192C62.7677 24.192 61.8317 23.976 60.9997 23.544C60.1837 23.112 59.5357 22.472 59.0557 21.624C58.5917 20.776 58.3597 19.752 58.3597 18.552V10.776H61.0717V18.144C61.0717 19.328 61.3677 20.24 61.9597 20.88C62.5517 21.504 63.3597 21.816 64.3837 21.816C65.4077 21.816 66.2157 21.504 66.8077 20.88C67.4157 20.24 67.7197 19.328 67.7197 18.144V10.776H70.4557ZM79.7296 17.304L84.0016 24H80.9056L78.0496 19.512L75.3616 24H72.5056L76.7776 17.496L72.5056 10.776H75.6016L78.4576 15.264L81.1456 10.776H84.0016L79.7296 17.304ZM85.1302 15.624C85.1302 13.992 85.5062 12.528 86.2582 11.232C87.0262 9.936 88.0582 8.928 89.3542 8.208C90.6662 7.472 92.0982 7.104 93.6502 7.104C95.4262 7.104 97.0022 7.544 98.3782 8.424C99.7702 9.288 100.778 10.52 101.402 12.12H98.1142C97.6822 11.24 97.0822 10.584 96.3142 10.152C95.5462 9.72 94.6582 9.504 93.6502 9.504C92.5462 9.504 91.5622 9.752 90.6982 10.248C89.8342 10.744 89.1542 11.456 88.6582 12.384C88.1782 13.312 87.9382 14.392 87.9382 15.624C87.9382 16.856 88.1782 17.936 88.6582 18.864C89.1542 19.792 89.8342 20.512 90.6982 21.024C91.5622 21.52 92.5462 21.768 93.6502 21.768C94.6582 21.768 95.5462 21.552 96.3142 21.12C97.0822 20.688 97.6822 20.032 98.1142 19.152H101.402C100.778 20.752 99.7702 21.984 98.3782 22.848C97.0022 23.712 95.4262 24.144 93.6502 24.144C92.0822 24.144 90.6502 23.784 89.3542 23.064C88.0582 22.328 87.0262 21.312 86.2582 20.016C85.5062 18.72 85.1302 17.256 85.1302 15.624ZM113.269 24L109.429 17.328H107.341V24H104.605V7.32H110.365C111.645 7.32 112.725 7.544 113.605 7.992C114.501 8.44 115.165 9.04 115.597 9.792C116.045 10.544 116.269 11.384 116.269 12.312C116.269 13.4 115.949 14.392 115.309 15.288C114.685 16.168 113.717 16.768 112.405 17.088L116.533 24H113.269ZM107.341 15.144H110.365C111.389 15.144 112.157 14.888 112.669 14.376C113.197 13.864 113.461 13.176 113.461 12.312C113.461 11.448 113.205 10.776 112.693 10.296C112.181 9.8 111.405 9.552 110.365 9.552H107.341V15.144ZM137.337 7.32V24H134.601V12.576L129.513 24H127.617L122.505 12.576V24H119.769V7.32H122.721L128.577 20.4L134.409 7.32H137.337Z" fill="#E8E9E9"/>
<defs>
<filter id="filter0_i_2158_82" x="0.0593719" y="1" width="29.8812" height="30.75" filterUnits="userSpaceOnUse" color-interpolation-filters="sRGB">
<feFlood flood-opacity="0" result="BackgroundImageFix"/>
<feBlend mode="normal" in="SourceGraphic" in2="BackgroundImageFix" result="shape"/>
<feColorMatrix in="SourceAlpha" type="matrix" values="0 0 0 0 0 0 0 0 0 0 0 0 0 0 0 0 0 0 127 0" result="hardAlpha"/>
<feOffset dy="0.75"/>
<feGaussianBlur stdDeviation="0.375"/>
<feComposite in2="hardAlpha" operator="arithmetic" k2="-1" k3="1"/>
<feColorMatrix type="matrix" values="0 0 0 0 0.6 0 0 0 0 0.713158 0 0 0 0 1 0 0 0 0.4 0"/>
<feBlend mode="normal" in2="shape" result="effect1_innerShadow_2158_82"/>
</filter>
<linearGradient id="paint0_linear_2158_82" x1="15" y1="1" x2="15" y2="30.9999" gradientUnits="userSpaceOnUse">
<stop stop-color="#0046F7"/>
<stop offset="1" stop-color="#003CD2"/>
</linearGradient>
<linearGradient id="paint1_linear_2158_82" x1="15" y1="1" x2="15" y2="30.9999" gradientUnits="userSpaceOnUse">
<stop stop-color="#0046F7"/>
<stop offset="1" stop-color="#003CD2"/>
</linearGradient>
<linearGradient id="paint2_linear_2158_82" x1="15" y1="1" x2="15" y2="30.9999" gradientUnits="userSpaceOnUse">
<stop stop-color="#0046F7"/>
<stop offset="1" stop-color="#003CD2"/>
</linearGradient>
<linearGradient id="paint3_linear_2158_82" x1="15" y1="1" x2="15" y2="30.9999" gradientUnits="userSpaceOnUse">
<stop stop-color="#0046F7"/>
<stop offset="1" stop-color="#003CD2"/>
</linearGradient>
<clipPath id="clip0_2158_82">
<rect width="30" height="30" fill="white" transform="translate(0 1)"/>
</clipPath>
</defs>
</svg>
