<svg width="16" height="20" viewBox="0 0 16 20" fill="none" xmlns="http://www.w3.org/2000/svg">
<path d="M6.13397 8.53375L7.74347 7.05775C8.18393 6.65367 8.49364 6.12723 8.63288 5.54594C8.77212 4.96466 8.73454 4.35503 8.52497 3.79525L7.83722 1.95925C7.58085 1.27398 7.07265 0.712368 6.41633 0.389015C5.76001 0.0656629 5.00503 0.00494295 4.30547 0.219246C1.73147 1.00675 -0.247032 3.39925 0.361968 6.241C0.762468 8.11 1.52822 10.456 2.98097 12.9527C4.19821 15.0556 5.72963 16.9601 7.52222 18.6002C9.67472 20.5592 12.7497 20.0695 14.7282 18.2252C15.2582 17.7306 15.5798 17.0525 15.6275 16.329C15.6751 15.6056 15.4453 14.8912 14.9847 14.3312L13.724 12.7997C13.344 12.3379 12.8347 12.0002 12.2613 11.8299C11.688 11.6597 11.0769 11.6647 10.5065 11.8442L8.42447 12.5005C8.34397 12.418 8.25247 12.32 8.14997 12.2065C7.72178 11.7331 7.34306 11.2171 7.01972 10.6667C6.70484 10.1114 6.4475 9.52537 6.25172 8.91775C6.20984 8.79057 6.17058 8.66254 6.13397 8.53375Z" fill="#A0BBFF"/>
</svg>
