<svg width="30" height="30" viewBox="0 0 30 30" fill="none" xmlns="http://www.w3.org/2000/svg">
<path d="M14.9999 0C-2.14149 0.346653 -5.652 23.7978 10.3513 29.2889V20.0887L7.75053 17.4872C5.95193 18.4094 3.73596 17.0435 3.7556 15.0132C3.7556 13.489 4.9956 12.249 6.51974 12.249C8.5494 12.2296 9.91548 14.4442 8.99428 16.2428L11.853 19.1024C12.0179 19.2674 12.1106 19.4911 12.1106 19.7243V29.7463C12.7664 29.8747 13.4371 29.9602 14.1202 29.9999V12.9218C11.1947 11.8894 11.8598 7.59951 14.9999 7.53787C18.1405 7.5998 18.8046 11.89 15.8795 12.9218V29.9999C16.5625 29.9603 17.2334 29.8747 17.8891 29.7463V19.7244C17.8891 19.4911 17.9818 19.2674 18.1467 19.1025L21.0054 16.2429C20.0844 14.4444 21.4503 12.2294 23.48 12.2491C25.0042 12.2491 26.2442 13.4891 26.2442 15.0132C26.2637 17.0434 24.0479 18.4096 22.2493 17.4872L19.6485 20.0887V29.2889C35.6621 23.7904 32.1288 0.34202 14.9999 0Z" fill="url(#paint0_linear_2065_20)"/>
<path d="M14.9999 9.29723C14.4458 9.29723 13.995 9.74804 13.995 10.3021C14.0502 11.635 15.9497 11.6346 16.0047 10.3021C16.0047 9.74804 15.5539 9.29723 14.9999 9.29723Z" fill="url(#paint1_linear_2065_20)"/>
<path d="M24.4848 15.0132C24.4848 14.4592 24.034 14.0084 23.48 14.0084C22.147 14.0636 22.1474 15.963 23.48 16.0181C24.034 16.0181 24.4848 15.5672 24.4848 15.0132Z" fill="url(#paint2_linear_2065_20)"/>
<path d="M5.51496 15.0132C5.51496 15.5672 5.96577 16.0181 6.51979 16.0181C7.85275 15.9629 7.85234 14.0634 6.51979 14.0084C5.96571 14.0084 5.51496 14.4592 5.51496 15.0132Z" fill="url(#paint3_linear_2065_20)"/>
<defs>
<linearGradient id="paint0_linear_2065_20" x1="15" y1="0" x2="15" y2="29.9999" gradientUnits="userSpaceOnUse">
<stop stop-color="#0046F7"/>
<stop offset="1" stop-color="#003CD2"/>
</linearGradient>
<linearGradient id="paint1_linear_2065_20" x1="15" y1="0" x2="15" y2="29.9999" gradientUnits="userSpaceOnUse">
<stop stop-color="#0046F7"/>
<stop offset="1" stop-color="#003CD2"/>
</linearGradient>
<linearGradient id="paint2_linear_2065_20" x1="15" y1="0" x2="15" y2="29.9999" gradientUnits="userSpaceOnUse">
<stop stop-color="#0046F7"/>
<stop offset="1" stop-color="#003CD2"/>
</linearGradient>
<linearGradient id="paint3_linear_2065_20" x1="15" y1="0" x2="15" y2="29.9999" gradientUnits="userSpaceOnUse">
<stop stop-color="#0046F7"/>
<stop offset="1" stop-color="#003CD2"/>
</linearGradient>
</defs>
</svg>
