<svg width="40" height="40" viewBox="0 0 40 40" fill="none" xmlns="http://www.w3.org/2000/svg">
<path d="M19.07 20.4584C24.7197 20.4584 29.2997 15.8784 29.2997 10.2287C29.2997 4.57902 24.7197 -0.000976562 19.07 -0.000976562C13.4203 -0.000976562 8.8403 4.57902 8.8403 10.2287C8.8403 15.8784 13.4203 20.4584 19.07 20.4584Z" fill="#A0BBFF"/>
<path fill-rule="evenodd" clip-rule="evenodd" d="M21.7204 38.1502C19.7879 36.0745 18.605 33.2921 18.605 30.2343C18.605 27.104 19.8456 24.2602 21.8618 22.1696C20.9504 22.0989 20.0186 22.0617 19.07 22.0617C12.8913 22.0617 7.42116 23.6073 4.0249 25.923C1.43399 27.6899 0.0055542 29.9349 0.0055542 32.2914V34.9883C0.0055542 35.8272 0.338485 36.6325 0.931807 37.224C1.52513 37.8173 2.32863 38.1502 3.16746 38.1502H21.7204Z" fill="#A0BBFF"/>
<path fill-rule="evenodd" clip-rule="evenodd" d="M30.2297 20.4696C24.8396 20.4696 20.465 24.8442 20.465 30.2343C20.465 35.6244 24.8396 39.999 30.2297 39.999C35.6198 39.999 39.9944 35.6244 39.9944 30.2343C39.9944 24.8442 35.6198 20.4696 30.2297 20.4696ZM28.8347 30.2343V34.8842C28.8347 35.6542 29.4597 36.2791 30.2297 36.2791C30.9997 36.2791 31.6246 35.6542 31.6246 34.8842V30.2343C31.6246 29.4643 30.9997 28.8393 30.2297 28.8393C29.4597 28.8393 28.8347 29.4643 28.8347 30.2343ZM30.2297 24.1895C31.2564 24.1895 32.0896 25.0227 32.0896 26.0494C32.0896 27.0761 31.2564 27.9094 30.2297 27.9094C29.203 27.9094 28.3697 27.0761 28.3697 26.0494C28.3697 25.0227 29.203 24.1895 30.2297 24.1895Z" fill="#A0BBFF"/>
</svg>
